MMXI-Medium-Oblique.ufo
<glyph name="exclam" format="1">
  <advance width="465.428054588"/>
  <unicode hex="0021"/>
  <outline>
    <contour>
      <point x="409.428054588" y="1472" type="line"/>
      <point x="201.428054588" y="496" type="line"/>
      <point x="473.428054588" y="496" type="line"/>
      <point x="681.428054588" y="1472" type="line"/>
    </contour>
    <contour>
      <point x="369.428054588" y="0" type="line"/>
      <point x="429.428054588" y="288" type="line"/>
      <point x="157.428054588" y="288" type="line"/>
      <point x="97.4280545883" y="0" type="line"/>
    </contour>
  </outline>
</glyph>
<glyph name="quotedbl" format="1">
  <advance width="848.0"/>
  <unicode hex="0022"/>
  <outline>
    <contour>
      <point x="1064.88325878" y="1472" type="line"/>
      <point x="792.883258778" y="1472" type="line"/>
      <point x="776.883258778" y="1024" type="line"/>
      <point x="888.883258778" y="1024" type="line"/>
    </contour>
    <contour>
      <point x="680.883258778" y="1472" type="line"/>
      <point x="408.883258778" y="1472" type="line"/>
      <point x="392.883258778" y="1024" type="line"/>
      <point x="504.883258778" y="1024" type="line"/>
    </contour>
  </outline>
</glyph>
<glyph name="numbersign" format="1">
  <advance width="1571.55837061"/>
  <unicode hex="0023"/>
  <outline>
    <contour>
      <point x="1362.22081469" y="1472" type="line"/>
      <point x="794.220814695" y="0" type="line"/>
      <point x="1050.22081469" y="0" type="line"/>
      <point x="1618.22081469" y="1472" type="line"/>
    </contour>
    <contour>
      <point x="850.220814695" y="1472" type="line"/>
      <point x="282.220814695" y="0" type="line"/>
      <point x="538.220814695" y="0" type="line"/>
      <point x="1106.22081469" y="1472" type="line"/>
    </contour>
    <contour>
      <point x="1506.22081469" y="608" type="line"/>
      <point x="226.220814695" y="608" type="line"/>
      <point x="174.220814695" y="368" type="line"/>
      <point x="1454.22081469" y="368" type="line"/>
    </contour>
    <contour>
      <point x="1710.22081469" y="1104" type="line"/>
      <point x="430.220814695" y="1104" type="line"/>
      <point x="378.220814695" y="864" type="line"/>
      <point x="1658.22081469" y="864" type="line"/>
    </contour>
  </outline>
</glyph>
<glyph name="dollar" format="1">
  <advance width="928.525937959"/>
  <unicode hex="0024"/>
  <outline>
    <contour>
      <point x="738.06334907" y="1664" type="line"/>
      <point x="670.06334907" y="1340" type="line"/>
      <point x="822.06334907" y="1340" type="line"/>
      <point x="890.06334907" y="1664" type="line"/>
    </contour>
    <contour>
      <point x="414.06334907" y="128" type="line"/>
      <point x="346.06334907" y="-192" type="line"/>
      <point x="502.06334907" y="-192" type="line"/>
      <point x="570.06334907" y="128" type="line"/>
    </contour>
    <contour>
      <point x="858.06334907" y="720" type="curve" smooth="yes"/>
      <point x="706.06334907" y="912" type="line" smooth="yes"/>
      <point x="646.06334907" y="992"/>
      <point x="590.06334907" y="1040"/>
      <point x="606.06334907" y="1120" type="curve"/>
      <point x="630.06334907" y="1216"/>
      <point x="718.06334907" y="1264"/>
      <point x="814.06334907" y="1264" type="curve" smooth="yes"/>
      <point x="894.06334907" y="1264"/>
      <point x="966.06334907" y="1232"/>
      <point x="1026.06334907" y="1200" type="curve"/>
      <point x="1074.06334907" y="1440" type="line"/>
      <point x="1022.06334907" y="1488"/>
      <point x="930.06334907" y="1504"/>
      <point x="834.06334907" y="1504" type="curve"/>
      <point x="546.06334907" y="1504"/>
      <point x="382.06334907" y="1344"/>
      <point x="334.06334907" y="1120" type="curve"/>
      <point x="302.06334907" y="960"/>
      <point x="334.06334907" y="880"/>
      <point x="422.06334907" y="768" type="curve" smooth="yes"/>
      <point x="570.06334907" y="576" type="line" smooth="yes"/>
      <point x="622.06334907" y="512"/>
      <point x="646.06334907" y="464"/>
      <point x="626.06334907" y="384" type="curve"/>
      <point x="606.06334907" y="288"/>
      <point x="526.06334907" y="208"/>
      <point x="430.06334907" y="208" type="curve" smooth="yes"/>
      <point x="350.06334907" y="208"/>
      <point x="274.06334907" y="224"/>
      <point x="186.06334907" y="272" type="curve"/>
      <point x="138.06334907" y="32" type="line"/>
      <point x="206.06334907" y="-16"/>
      <point x="314.06334907" y="-32"/>
      <point x="410.06334907" y="-32" type="curve"/>
      <point x="634.06334907" y="-32"/>
      <point x="858.06334907" y="112"/>
      <point x="914.06334907" y="384" type="curve"/>
      <point x="950.06334907" y="544"/>
      <point x="934.06334907" y="624"/>
    </contour>
  </outline>
</glyph>
<glyph name="percent" format="1">
  <advance width="1728.44835182"/>
  <unicode hex="0025"/>
  <outline>
    <contour>
      <point x="1288.46309034" y="-32" type="curve" smooth="yes"/>
      <point x="1480.46309034" y="-32"/>
      <point x="1660.46309034" y="128"/>
      <point x="1700.46309034" y="320" type="curve"/>
      <point x="1740.46309034" y="512"/>
      <point x="1628.46309034" y="672"/>
      <point x="1436.46309034" y="672" type="curve" smooth="yes"/>
      <point x="1244.46309034" y="672"/>
      <point x="1068.46309034" y="512"/>
      <point x="1028.46309034" y="320" type="curve" smooth="yes"/>
      <point x="988.463090338" y="128"/>
      <point x="1096.46309034" y="-32"/>
    </contour>
    <contour>
      <point x="1328.46309034" y="160" type="curve" smooth="yes"/>
      <point x="1232.46309034" y="160"/>
      <point x="1184.46309034" y="224"/>
      <point x="1204.46309034" y="320" type="curve" smooth="yes"/>
      <point x="1224.46309034" y="416"/>
      <point x="1300.46309034" y="480"/>
      <point x="1396.46309034" y="480" type="curve" smooth="yes"/>
      <point x="1492.46309034" y="480"/>
      <point x="1544.46309034" y="416"/>
      <point x="1524.46309034" y="320" type="curve" smooth="yes"/>
      <point x="1504.46309034" y="224"/>
      <point x="1424.46309034" y="160"/>
    </contour>
    <contour>
      <point x="1448.46309034" y="1472" type="curve"/>
      <point x="400.463090338" y="0" type="line"/>
      <point x="656.463090338" y="0" type="line"/>
      <point x="1704.46309034" y="1472" type="line"/>
      <point x="1704.46309034" y="1472"/>
      <point x="1448.46309034" y="1472"/>
    </contour>
    <contour>
      <point x="580.463090338" y="704" type="curve" smooth="yes"/>
      <point x="772.463090338" y="704"/>
      <point x="952.463090338" y="864"/>
      <point x="992.463090338" y="1056" type="curve"/>
      <point x="1032.46309034" y="1248"/>
      <point x="924.463090338" y="1408"/>
      <point x="732.463090338" y="1408" type="curve" smooth="yes"/>
      <point x="540.463090338" y="1408"/>
      <point x="360.463090338" y="1248"/>
      <point x="320.463090338" y="1056" type="curve" smooth="yes"/>
      <point x="280.463090338" y="864"/>
      <point x="388.463090338" y="704"/>
    </contour>
    <contour>
      <point x="620.463090338" y="896" type="curve" smooth="yes"/>
      <point x="524.463090338" y="896"/>
      <point x="476.463090338" y="960"/>
      <point x="496.463090338" y="1056" type="curve" smooth="yes"/>
      <point x="516.463090338" y="1152"/>
      <point x="592.463090338" y="1216"/>
      <point x="688.463090338" y="1216" type="curve" smooth="yes"/>
      <point x="784.463090338" y="1216"/>
      <point x="836.463090338" y="1152"/>
      <point x="816.463090338" y="1056" type="curve" smooth="yes"/>
      <point x="796.463090338" y="960"/>
      <point x="716.463090338" y="896"/>
    </contour>
  </outline>
</glyph>
<glyph name="ampersand" format="1">
  <advance width="1391.25507774"/>
  <unicode hex="0026"/>
  <outline>
    <contour>
      <point x="1111.25507774" y="640.0" type="line"/>
      <point x="1083.25507774" y="512.0"/>
      <point x="907.255077735" y="208.0"/>
      <point x="651.255077735" y="208.0" type="curve"/>
      <point x="523.255077735" y="208.0"/>
      <point x="431.255077735" y="304.0"/>
      <point x="463.255077735" y="448.0" type="curve"/>
      <point x="483.255077735" y="552.0"/>
      <point x="547.255077735" y="616.0"/>
      <point x="691.255077735" y="704.0" type="curve"/>
      <point x="691.255077735" y="704.0"/>
      <point x="599.255077735" y="872.0"/>
      <point x="599.255077735" y="872.0" type="curve"/>
      <point x="459.255077735" y="820.0"/>
      <point x="231.255077735" y="640.0"/>
      <point x="191.255077735" y="448.0" type="curve"/>
      <point x="127.255077735" y="160.0"/>
      <point x="279.255077735" y="-32.0"/>
      <point x="599.255077735" y="-32.0" type="curve"/>
      <point x="1015.25507774" y="-32.0"/>
      <point x="1323.25507774" y="352.0"/>
      <point x="1383.25507774" y="640.0" type="curve"/>
    </contour>
    <contour>
      <point x="895.255077735" y="1504.0" type="curve"/>
      <point x="843.255077735" y="1264.0" type="line"/>
      <point x="875.255077735" y="1264.0"/>
      <point x="919.255077735" y="1248.0"/>
      <point x="907.255077735" y="1184.0" type="curve"/>
      <point x="891.255077735" y="1104.0"/>
      <point x="839.255077735" y="1060.0"/>
      <point x="807.255077735" y="1024.0" type="curve" smooth="yes"/>
      <point x="715.255077735" y="924.0" type="line"/>
      <point x="815.255077735" y="764.0" type="line" smooth="yes"/>
      <point x="1003.25507774" y="896.0" type="line" smooth="yes"/>
      <point x="1107.25507774" y="972.0"/>
      <point x="1159.25507774" y="1088.0"/>
      <point x="1179.25507774" y="1184.0" type="curve"/>
      <point x="1207.25507774" y="1328.0"/>
      <point x="1151.25507774" y="1504.0"/>
    </contour>
    <contour>
      <point x="895.255077735" y="1504.0" type="line"/>
      <point x="639.255077735" y="1504.0"/>
      <point x="503.255077735" y="1328.0"/>
      <point x="475.255077735" y="1184.0" type="curve"/>
      <point x="455.255077735" y="1088.0"/>
      <point x="463.255077735" y="984.0"/>
      <point x="511.255077735" y="896.0" type="curve" smooth="yes"/>
      <point x="959.255077735" y="0.0" type="line" smooth="yes"/>
      <point x="1295.25507774" y="0.0" type="line"/>
      <point x="775.255077735" y="1024.0" type="line" smooth="yes"/>
      <point x="759.255077735" y="1060.0"/>
      <point x="731.255077735" y="1104.0"/>
      <point x="747.255077735" y="1184.0" type="curve"/>
      <point x="759.255077735" y="1248.0"/>
      <point x="811.255077735" y="1264.0"/>
      <point x="843.255077735" y="1264.0" type="curve"/>
    </contour>
  </outline>
</glyph>
<glyph name="quotesingle" format="1">
  <advance width="448.0"/>
  <unicode hex="0027"/>
  <outline>
    <contour>
      <point x="514.081448805" y="1056" type="line"/>
      <point x="658.081448805" y="1440" type="line"/>
      <point x="634.081448805" y="1472" type="line"/>
      <point x="442.081448805" y="1472" type="line"/>
      <point x="402.081448805" y="1440" type="line"/>
      <point x="386.081448805" y="1056" type="line"/>
      <point x="410.081448805" y="1024" type="line"/>
      <point x="474.081448805" y="1024" type="line"/>
    </contour>
  </outline>
</glyph>
<glyph name="parenleft" format="1">
  <advance width="624.863660613"/>
  <unicode hex="0028"/>
  <outline>
    <contour>
      <point x="412.052800773" y="1184"/>
      <point x="292.052800773" y="928"/>
      <point x="232.052800773" y="640" type="curve"/>
      <point x="172.052800773" y="352"/>
      <point x="180.052800773" y="96"/>
      <point x="264.052800773" y="-192" type="curve"/>
      <point x="488.052800773" y="-192" type="line"/>
      <point x="404.052800773" y="96"/>
      <point x="396.052800773" y="352"/>
      <point x="456.052800773" y="640" type="curve"/>
      <point x="516.052800773" y="928"/>
      <point x="636.052800773" y="1184"/>
      <point x="840.052800773" y="1472" type="curve"/>
      <point x="616.052800773" y="1472" type="line"/>
    </contour>
  </outline>
</glyph>
<glyph name="parenright" format="1">
  <advance width="624.863660613"/>
  <unicode hex="0029"/>
  <outline>
    <contour>
      <point x="632.883258778" y="1472" type="curve"/>
      <point x="408.883258778" y="1472" type="line"/>
      <point x="492.883258778" y="1184"/>
      <point x="500.883258778" y="928"/>
      <point x="440.883258778" y="640" type="curve"/>
      <point x="380.883258778" y="352"/>
      <point x="260.883258778" y="96"/>
      <point x="56.8832587783" y="-192" type="curve"/>
      <point x="280.883258778" y="-192" type="line"/>
      <point x="484.883258778" y="96"/>
      <point x="604.883258778" y="352"/>
      <point x="664.883258778" y="640" type="curve"/>
      <point x="724.883258778" y="928"/>
      <point x="716.883258778" y="1184"/>
    </contour>
  </outline>
</glyph>
<glyph name="asterisk" format="1">
  <advance width="948.0"/>
  <unicode hex="002A"/>
  <outline>
    <contour>
      <point x="684.61402781" y="1004" type="line"/>
      <point x="732.61402781" y="760" type="line"/>
      <point x="776.61402781" y="752" type="line"/>
      <point x="952.61402781" y="864" type="line"/>
      <point x="964.61402781" y="912" type="line"/>
      <point x="804.61402781" y="1076" type="line"/>
      <point x="760.61402781" y="1088" type="line"/>
      <point x="696.61402781" y="1052" type="line"/>
    </contour>
    <contour>
      <point x="796.61402781" y="1072" type="line"/>
      <point x="1064.61402781" y="1092" type="line"/>
      <point x="1092.61402781" y="1132" type="line"/>
      <point x="1068.61402781" y="1308" type="line"/>
      <point x="1028.61402781" y="1328" type="line"/>
      <point x="784.61402781" y="1192" type="line"/>
      <point x="748.61402781" y="1152" type="line"/>
      <point x="756.61402781" y="1088" type="line"/>
    </contour>
    <contour>
      <point x="604.61402781" y="1080" type="line"/>
      <point x="364.61402781" y="908" type="line"/>
      <point x="364.61402781" y="864" type="line"/>
      <point x="492.61402781" y="756" type="line"/>
      <point x="544.61402781" y="764" type="line"/>
      <point x="688.61402781" y="1004" type="line"/>
      <point x="696.61402781" y="1052" type="line"/>
      <point x="652.61402781" y="1092" type="line"/>
    </contour>
    <contour>
      <point x="668.61402781" y="1192" type="line"/>
      <point x="476.61402781" y="1332" type="line"/>
      <point x="432.61402781" y="1312" type="line"/>
      <point x="336.61402781" y="1132" type="line"/>
      <point x="348.61402781" y="1088" type="line"/>
      <point x="604.61402781" y="1072" type="line"/>
      <point x="652.61402781" y="1092" type="line"/>
      <point x="684.61402781" y="1152" type="line"/>
    </contour>
    <contour>
      <point x="788.61402781" y="1184" type="line"/>
      <point x="920.61402781" y="1472" type="line"/>
      <point x="648.61402781" y="1472" type="line"/>
      <point x="660.61402781" y="1184" type="line"/>
      <point x="684.61402781" y="1152" type="line"/>
      <point x="748.61402781" y="1152" type="line"/>
    </contour>
    <contour>
      <point x="656.61402781" y="1168" type="line"/>
      <point x="628.61402781" y="1040" type="line"/>
      <point x="756.61402781" y="1040" type="line"/>
      <point x="784.61402781" y="1168" type="line"/>
    </contour>
  </outline>
</glyph>
<glyph name="comma" format="1">
  <advance width="465.216289761"/>
  <unicode hex="002C"/>
  <outline>
    <contour>
      <point x="209.216289761" y="0" type="curve"/>
      <point x="165.216289761" y="-208" type="line"/>
      <point x="165.216289761" y="-208"/>
      <point x="245.216289761" y="-208"/>
      <point x="245.216289761" y="-208" type="curve"/>
      <point x="369.216289761" y="0" type="line"/>
      <point x="429.216289761" y="288" type="line"/>
      <point x="157.216289761" y="288" type="line"/>
      <point x="97.216289761" y="0" type="line"/>
      <point x="97.216289761" y="0"/>
      <point x="209.216289761" y="0"/>
    </contour>
  </outline>
</glyph>
<glyph name="period" format="1">
  <advance width="466.783710239"/>
  <unicode hex="002E"/>
  <outline>
    <contour>
      <point x="368.0" y="0" type="line"/>
      <point x="432.0" y="288" type="line"/>
      <point x="160.0" y="288" type="line"/>
      <point x="96.0" y="0" type="line"/>
    </contour>
  </outline>
</glyph>
<glyph name="slash" format="1">
  <advance width="895.116741222"/>
  <unicode hex="002F"/>
  <outline>
    <contour>
      <point x="888.0" y="1472.0" type="curve"/>
      <point x="96.0" y="0.0" type="line"/>
      <point x="320.0" y="0.0" type="line"/>
      <point x="344.0" y="32.0"/>
      <point x="1112.0" y="1472.0"/>
      <point x="1112.0" y="1472.0" type="curve"/>
      <point x="1112.0" y="1472.0"/>
      <point x="888.0" y="1472.0"/>
    </contour>
  </outline>
</glyph>
<glyph name="zero" format="1">
  <advance width="1056.03619947"/>
  <unicode hex="0030"/>
  <outline>
    <contour>
      <point x="520.459729124" y="-32" type="curve" smooth="yes"/>
      <point x="776.459729124" y="-32"/>
      <point x="992.459729124" y="160"/>
      <point x="1048.45972912" y="416" type="curve" smooth="yes"/>
      <point x="1184.45972912" y="1056" type="line" smooth="yes"/>
      <point x="1240.45972912" y="1312"/>
      <point x="1104.45972912" y="1504"/>
      <point x="848.459729124" y="1504" type="curve" smooth="yes"/>
      <point x="592.459729124" y="1504"/>
      <point x="376.459729124" y="1312"/>
      <point x="320.459729124" y="1056" type="curve" smooth="yes"/>
      <point x="184.459729124" y="416" type="line" smooth="yes"/>
      <point x="128.459729124" y="160"/>
      <point x="264.459729124" y="-32"/>
    </contour>
    <contour>
      <point x="576.459729124" y="224" type="curve" smooth="yes"/>
      <point x="480.459729124" y="224"/>
      <point x="428.459729124" y="288"/>
      <point x="448.459729124" y="384" type="curve" smooth="yes"/>
      <point x="600.459729124" y="1088" type="line" smooth="yes"/>
      <point x="620.459729124" y="1184"/>
      <point x="696.459729124" y="1248"/>
      <point x="792.459729124" y="1248" type="curve" smooth="yes"/>
      <point x="888.459729124" y="1248"/>
      <point x="940.459729124" y="1184"/>
      <point x="920.459729124" y="1088" type="curve" smooth="yes"/>
      <point x="768.459729124" y="384" type="line" smooth="yes"/>
      <point x="748.459729124" y="288"/>
      <point x="672.459729124" y="224"/>
    </contour>
  </outline>
</glyph>
<glyph name="one" format="1">
  <advance width="916.986425199"/>
  <unicode hex="0031"/>
  <outline>
    <contour>
      <point x="872.0" y="240" type="curve"/>
      <point x="648.0" y="240" type="line"/>
      <point x="648.0" y="240"/>
      <point x="912.0" y="1472"/>
      <point x="912.0" y="1472" type="curve"/>
      <point x="912.0" y="1472"/>
      <point x="480.0" y="1472"/>
      <point x="480.0" y="1472" type="curve"/>
      <point x="480.0" y="1472"/>
      <point x="424.0" y="1232"/>
      <point x="424.0" y="1232" type="curve"/>
      <point x="584.0" y="1232" type="line"/>
      <point x="376.0" y="240" type="line"/>
      <point x="152.0" y="240" type="line"/>
      <point x="96.0" y="0" type="line"/>
      <point x="816.0" y="0" type="line"/>
      <point x="816.0" y="0"/>
      <point x="872.0" y="240"/>
    </contour>
  </outline>
</glyph>
<glyph name="two" format="1">
  <advance width="979.279638831"/>
  <unicode hex="0032"/>
  <outline>
    <contour>
      <point x="931.279638831" y="240" type="line"/>
      <point x="115.279638831" y="240" type="line"/>
      <point x="115.279638831" y="240"/>
      <point x="67.2796388314" y="0"/>
      <point x="67.2796388314" y="0" type="curve"/>
      <point x="883.279638831" y="0" type="line"/>
    </contour>
    <contour>
      <point x="827.279638831" y="1024" type="curve"/>
      <point x="795.279638831" y="864"/>
      <point x="723.279638831" y="736"/>
      <point x="507.279638831" y="560" type="curve" smooth="yes"/>
      <point x="115.279638831" y="240" type="line"/>
      <point x="267.279638831" y="56" type="line"/>
      <point x="715.279638831" y="432" type="line" smooth="yes"/>
      <point x="971.279638831" y="640"/>
      <point x="1051.27963883" y="800"/>
      <point x="1099.27963883" y="1024" type="curve"/>
      <point x="1155.27963883" y="1296"/>
      <point x="979.279638831" y="1504"/>
      <point x="707.279638831" y="1504" type="curve"/>
      <point x="515.279638831" y="1504"/>
      <point x="435.279638831" y="1440"/>
      <point x="363.279638831" y="1408" type="curve"/>
      <point x="307.279638831" y="1136" type="line"/>
      <point x="379.279638831" y="1168"/>
      <point x="491.279638831" y="1248"/>
      <point x="651.279638831" y="1248" type="curve"/>
      <point x="763.279638831" y="1248"/>
      <point x="859.279638831" y="1168"/>
    </contour>
    <contour>
      <point x="115.279638831" y="240" type="move"/>
    </contour>
  </outline>
</glyph>
<glyph name="three" format="1">
  <advance width="1056.20444172"/>
  <unicode hex="0033"/>
  <outline>
    <contour>
      <point x="783.419004721" y="448" type="curve"/>
      <point x="751.419004721" y="304"/>
      <point x="623.419004721" y="224"/>
      <point x="511.419004721" y="224" type="curve"/>
      <point x="351.419004721" y="224"/>
      <point x="223.419004721" y="304"/>
      <point x="167.419004721" y="336" type="curve"/>
      <point x="111.419004721" y="64" type="line"/>
      <point x="167.419004721" y="32"/>
      <point x="263.419004721" y="-32"/>
      <point x="455.419004721" y="-32" type="curve"/>
      <point x="727.419004721" y="-32"/>
      <point x="999.419004721" y="176"/>
      <point x="1055.41900472" y="448" type="curve"/>
      <point x="1111.41900472" y="720"/>
      <point x="935.419004721" y="928"/>
      <point x="663.419004721" y="928" type="curve"/>
      <point x="471.419004721" y="928"/>
      <point x="599.419004721" y="928"/>
      <point x="535.419004721" y="928" type="curve"/>
      <point x="335.419004721" y="768" type="line"/>
      <point x="319.419004721" y="672" type="line"/>
      <point x="383.419004721" y="672"/>
      <point x="447.419004721" y="672"/>
      <point x="607.419004721" y="672" type="curve"/>
      <point x="719.419004721" y="672"/>
      <point x="815.419004721" y="592"/>
    </contour>
    <contour>
      <point x="887.419004721" y="1232" type="line"/>
      <point x="343.419004721" y="784" type="line"/>
      <point x="335.419004721" y="752" type="line"/>
      <point x="623.419004721" y="752" type="line"/>
      <point x="623.419004721" y="752"/>
      <point x="1207.41900472" y="1232"/>
      <point x="1207.41900472" y="1232" type="curve"/>
      <point x="1207.41900472" y="1232"/>
      <point x="1255.41900472" y="1472"/>
      <point x="1255.41900472" y="1472" type="curve"/>
      <point x="423.419004721" y="1472" type="line"/>
      <point x="375.419004721" y="1232" type="line"/>
    </contour>
  </outline>
</glyph>
<glyph name="four" format="1">
  <advance width="1012.9864252"/>
  <unicode hex="0034"/>
  <outline>
    <contour>
      <point x="1039.41900472" y="576" type="line"/>
      <point x="223.419004721" y="576" type="line"/>
      <point x="183.419004721" y="544" type="line"/>
      <point x="183.419004721" y="544"/>
      <point x="135.419004721" y="336"/>
      <point x="135.419004721" y="336" type="curve"/>
      <point x="983.419004721" y="336" type="line"/>
    </contour>
    <contour>
      <point x="223.419004721" y="576" type="move"/>
      <point x="183.419004721" y="544" type="line"/>
    </contour>
    <contour>
      <point x="783.419004721" y="0" type="curve"/>
      <point x="967.419004721" y="832" type="line"/>
      <point x="967.419004721" y="832"/>
      <point x="839.419004721" y="832"/>
      <point x="839.419004721" y="832" type="curve"/>
      <point x="655.419004721" y="576" type="line"/>
      <point x="527.419004721" y="0" type="line"/>
      <point x="527.419004721" y="0"/>
      <point x="783.419004721" y="0"/>
    </contour>
    <contour>
      <point x="359.419004721" y="416" type="line"/>
      <point x="1119.41900472" y="1472" type="line"/>
      <point x="847.419004721" y="1472" type="line"/>
      <point x="183.419004721" y="544" type="line"/>
    </contour>
  </outline>
</glyph>
<glyph name="five" format="1">
  <advance width="977.871555687"/>
  <unicode hex="0035"/>
  <outline>
    <contour>
      <point x="755.243439363" y="1232" type="line"/>
      <point x="1067.24343936" y="1232" type="line"/>
      <point x="1067.24343936" y="1232"/>
      <point x="1115.24343936" y="1472"/>
      <point x="1115.24343936" y="1472" type="curve"/>
      <point x="1115.24343936" y="1472"/>
      <point x="651.243439363" y="1472"/>
      <point x="651.243439363" y="1472" type="curve"/>
      <point x="651.243439363" y="1472"/>
      <point x="307.243439363" y="992"/>
      <point x="307.243439363" y="992" type="curve"/>
      <point x="307.243439363" y="992"/>
      <point x="555.243439363" y="960"/>
      <point x="555.243439363" y="960" type="curve"/>
    </contour>
    <contour>
      <point x="315.243439363" y="-32" type="curve"/>
      <point x="667.243439363" y="-32"/>
      <point x="923.243439363" y="176"/>
      <point x="987.243439363" y="496" type="curve"/>
      <point x="1059.24343936" y="816"/>
      <point x="867.243439363" y="992"/>
      <point x="531.243439363" y="992" type="curve"/>
      <point x="307.243439363" y="992" type="line"/>
      <point x="307.243439363" y="992"/>
      <point x="259.243439363" y="768"/>
      <point x="259.243439363" y="768" type="curve"/>
      <point x="483.243439363" y="768" type="line"/>
      <point x="643.243439363" y="768"/>
      <point x="747.243439363" y="656"/>
      <point x="715.243439363" y="496" type="curve"/>
      <point x="683.243439363" y="336"/>
      <point x="523.243439363" y="208"/>
      <point x="363.243439363" y="208" type="curve"/>
      <point x="267.243439363" y="208"/>
      <point x="227.243439363" y="224"/>
      <point x="163.243439363" y="288" type="curve"/>
      <point x="107.243439363" y="32" type="line"/>
      <point x="163.243439363" y="0"/>
      <point x="219.243439363" y="-32"/>
    </contour>
  </outline>
</glyph>
<glyph name="six" format="1">
  <advance width="1120.02206568"/>
  <unicode hex="0036"/>
  <outline>
    <contour>
      <point x="604.445595332" y="208" type="curve"/>
      <point x="492.445595332" y="208"/>
      <point x="416.445595332" y="304"/>
      <point x="440.445595332" y="416" type="curve" smooth="yes"/>
      <point x="452.445595332" y="480" type="line" smooth="yes"/>
      <point x="476.445595332" y="592"/>
      <point x="592.445595332" y="688"/>
      <point x="704.445595332" y="688" type="curve"/>
      <point x="816.445595332" y="688"/>
      <point x="892.445595332" y="592"/>
      <point x="868.445595332" y="480" type="curve" smooth="yes"/>
      <point x="856.445595332" y="416" type="line" smooth="yes"/>
      <point x="832.445595332" y="304"/>
      <point x="716.445595332" y="208"/>
    </contour>
    <contour>
      <point x="552.445595332" y="-32" type="curve"/>
      <point x="808.445595332" y="-32"/>
      <point x="1056.44559533" y="160"/>
      <point x="1112.44559533" y="416" type="curve"/>
      <point x="1124.44559533" y="480" type="line"/>
      <point x="1180.44559533" y="736"/>
      <point x="996.445595332" y="928"/>
      <point x="696.445595332" y="864" type="curve"/>
      <point x="632.445595332" y="864" type="line"/>
      <point x="332.445595332" y="736" type="line"/>
      <point x="264.445595332" y="640"/>
      <point x="200.445595332" y="496"/>
      <point x="184.445595332" y="416" type="curve"/>
      <point x="184.445595332" y="416" type="line"/>
      <point x="128.445595332" y="160"/>
      <point x="296.445595332" y="-32"/>
    </contour>
    <contour>
      <point x="512.445595332" y="608" type="curve"/>
      <point x="512.445595332" y="608"/>
      <point x="1128.44559533" y="1472"/>
      <point x="1128.44559533" y="1472" type="curve"/>
      <point x="1128.44559533" y="1472"/>
      <point x="856.445595332" y="1472"/>
      <point x="856.445595332" y="1472" type="curve"/>
      <point x="332.445595332" y="736" type="line"/>
      <point x="332.445595332" y="736"/>
      <point x="512.445595332" y="608"/>
    </contour>
  </outline>
</glyph>
<glyph name="seven" format="1">
  <advance width="1167.11674122"/>
  <unicode hex="0037"/>
  <outline>
    <contour>
      <point x="1416.0" y="1472" type="curve"/>
      <point x="440.0" y="1472" type="line"/>
      <point x="440.0" y="1472"/>
      <point x="388.0" y="1232"/>
      <point x="388.0" y="1232" type="curve"/>
      <point x="1204.0" y="1232" type="line"/>
      <point x="1204.0" y="1232"/>
      <point x="1416.0" y="1472"/>
    </contour>
    <contour>
      <point x="1112.0" y="1472" type="curve"/>
      <point x="64.0" y="0" type="line"/>
      <point x="368.0" y="0" type="line"/>
      <point x="368.0" y="0"/>
      <point x="1392.0" y="1440"/>
      <point x="1392.0" y="1440" type="curve"/>
      <point x="1368.0" y="1472" type="line"/>
      <point x="1368.0" y="1472"/>
      <point x="1112.0" y="1472"/>
    </contour>
  </outline>
</glyph>
<glyph name="eight" format="1">
  <advance width="1120.40542992"/>
  <unicode hex="0038"/>
  <outline>
    <contour>
      <point x="876.828959575" y="512" type="curve" smooth="yes"/>
      <point x="856.828959575" y="416" type="line" smooth="yes"/>
      <point x="832.828959575" y="304"/>
      <point x="716.828959575" y="208"/>
      <point x="604.828959575" y="208" type="curve"/>
      <point x="492.828959575" y="208"/>
      <point x="416.828959575" y="304"/>
      <point x="440.828959575" y="416" type="curve" smooth="yes"/>
      <point x="460.828959575" y="512" type="line" smooth="yes"/>
      <point x="484.828959575" y="624"/>
      <point x="600.828959575" y="720"/>
      <point x="712.828959575" y="720" type="curve"/>
      <point x="824.828959575" y="720"/>
      <point x="900.828959575" y="624"/>
    </contour>
    <contour>
      <point x="1112.82895958" y="416" type="curve"/>
      <point x="1132.82895958" y="512" type="line"/>
      <point x="1180.82895958" y="736"/>
      <point x="1008.82895958" y="912"/>
      <point x="752.828959575" y="912" type="curve"/>
      <point x="496.828959575" y="912"/>
      <point x="252.828959575" y="736"/>
      <point x="204.828959575" y="512" type="curve"/>
      <point x="184.828959575" y="416" type="line"/>
      <point x="128.828959575" y="160"/>
      <point x="296.828959575" y="-32"/>
      <point x="552.828959575" y="-32" type="curve"/>
      <point x="808.828959575" y="-32"/>
      <point x="1056.82895958" y="160"/>
    </contour>
    <contour>
      <point x="928.828959575" y="1064" type="line"/>
      <point x="912.828959575" y="984"/>
      <point x="844.828959575" y="912"/>
      <point x="752.828959575" y="912" type="curve"/>
      <point x="664.828959575" y="912"/>
      <point x="624.828959575" y="984"/>
      <point x="640.828959575" y="1064" type="curve"/>
      <point x="652.828959575" y="1120" type="line"/>
      <point x="672.828959575" y="1200"/>
      <point x="740.828959575" y="1272"/>
      <point x="828.828959575" y="1272" type="curve"/>
      <point x="920.828959575" y="1272"/>
      <point x="960.828959575" y="1200"/>
      <point x="940.828959575" y="1120" type="curve"/>
    </contour>
    <contour>
      <point x="1184.82895958" y="1064" type="curve"/>
      <point x="1196.82895958" y="1120" type="line"/>
      <point x="1244.82895958" y="1344"/>
      <point x="1108.82895958" y="1504"/>
      <point x="880.828959575" y="1504" type="curve"/>
      <point x="652.828959575" y="1504"/>
      <point x="444.828959575" y="1344"/>
      <point x="396.828959575" y="1120" type="curve"/>
      <point x="384.828959575" y="1064" type="line"/>
      <point x="340.828959575" y="840"/>
      <point x="484.828959575" y="720"/>
      <point x="712.828959575" y="720" type="curve"/>
      <point x="940.828959575" y="720"/>
      <point x="1140.82895958" y="840"/>
    </contour>
  </outline>
</glyph>
<glyph name="nine" format="1">
  <advance width="1120.02206568"/>
  <unicode hex="0039"/>
  <outline>
    <contour>
      <point x="576.459729124" y="0.0" type="curve"/>
      <point x="1100.45972912" y="736.0" type="line"/>
      <point x="1168.45972912" y="832.0"/>
      <point x="1232.45972912" y="976.0"/>
      <point x="1248.45972912" y="1056.0" type="curve"/>
      <point x="1304.45972912" y="1312.0"/>
      <point x="1136.45972912" y="1504.0"/>
      <point x="880.459729124" y="1504.0" type="curve"/>
      <point x="624.459729124" y="1504.0"/>
      <point x="376.459729124" y="1312.0"/>
      <point x="320.459729124" y="1056.0" type="curve"/>
      <point x="308.459729124" y="992.0" type="line"/>
      <point x="252.459729124" y="736.0"/>
      <point x="436.459729124" y="544.0"/>
      <point x="736.459729124" y="608.0" type="curve"/>
      <point x="736.459729124" y="608.0"/>
      <point x="304.459729124" y="0.0"/>
      <point x="304.459729124" y="0.0" type="curve"/>
      <point x="304.459729124" y="0.0"/>
      <point x="576.459729124" y="0.0"/>
    </contour>
    <contour>
      <point x="828.459729124" y="1264.0" type="curve"/>
      <point x="940.459729124" y="1264.0"/>
      <point x="1016.45972912" y="1168.0"/>
      <point x="992.459729124" y="1056.0" type="curve" smooth="yes"/>
      <point x="980.459729124" y="992.0" type="line" smooth="yes"/>
      <point x="956.459729124" y="880.0"/>
      <point x="840.459729124" y="784.0"/>
      <point x="728.459729124" y="784.0" type="curve"/>
      <point x="616.459729124" y="784.0"/>
      <point x="540.459729124" y="880.0"/>
      <point x="564.459729124" y="992.0" type="curve" smooth="yes"/>
      <point x="576.459729124" y="1056.0" type="line" smooth="yes"/>
      <point x="600.459729124" y="1168.0"/>
      <point x="716.459729124" y="1264.0"/>
    </contour>
  </outline>
</glyph>
<glyph name="colon" format="1">
  <advance width="466.783710239"/>
  <unicode hex="003A"/>
  <outline>
    <contour>
      <point x="493.216289761" y="576" type="line"/>
      <point x="553.216289761" y="864" type="line"/>
      <point x="281.216289761" y="864" type="line"/>
      <point x="221.216289761" y="576" type="line"/>
    </contour>
    <contour>
      <point x="369.216289761" y="0" type="line"/>
      <point x="429.216289761" y="288" type="line"/>
      <point x="157.216289761" y="288" type="line"/>
      <point x="97.216289761" y="0" type="line"/>
    </contour>
  </outline>
</glyph>
<glyph name="semicolon" format="1">
  <advance width="467.648869283"/>
  <unicode hex="003B"/>
  <outline>
    <contour>
      <point x="551.648869283" y="864" type="line"/>
      <point x="279.648869283" y="864" type="line"/>
      <point x="219.648869283" y="576" type="line"/>
      <point x="491.648869283" y="576" type="line"/>
    </contour>
    <contour>
      <point x="211.648869283" y="0" type="curve"/>
      <point x="167.648869283" y="-208" type="line"/>
      <point x="167.648869283" y="-208"/>
      <point x="247.648869283" y="-208"/>
      <point x="247.648869283" y="-208" type="curve"/>
      <point x="371.648869283" y="0" type="line"/>
      <point x="431.648869283" y="288" type="line"/>
      <point x="431.648869283" y="288"/>
      <point x="159.648869283" y="288"/>
      <point x="159.648869283" y="288" type="curve"/>
      <point x="99.6488692829" y="0" type="line"/>
      <point x="99.6488692829" y="0"/>
      <point x="211.648869283" y="0"/>
    </contour>
  </outline>
</glyph>
<glyph name="question" format="1">
  <advance width="881.00529665"/>
  <unicode hex="003F"/>
  <outline>
    <contour>
      <point x="459.666969017" y="816" type="line" smooth="yes"/>
      <point x="383.666969017" y="752"/>
      <point x="355.666969017" y="688"/>
      <point x="327.666969017" y="560" type="curve"/>
      <point x="311.666969017" y="496" type="line"/>
      <point x="583.666969017" y="496" type="line"/>
      <point x="599.666969017" y="560" type="line"/>
      <point x="611.666969017" y="624"/>
      <point x="619.666969017" y="656"/>
      <point x="659.666969017" y="688" type="curve" smooth="yes"/>
      <point x="735.666969017" y="752" type="line" smooth="yes"/>
      <point x="871.666969017" y="864"/>
      <point x="983.666969017" y="944"/>
      <point x="1019.66696902" y="1104" type="curve"/>
      <point x="1067.66696902" y="1328"/>
      <point x="959.666969017" y="1504"/>
      <point x="655.666969017" y="1504" type="curve" smooth="yes"/>
      <point x="575.666969017" y="1504"/>
      <point x="507.666969017" y="1488"/>
      <point x="403.666969017" y="1440" type="curve"/>
      <point x="347.666969017" y="1184" type="line"/>
      <point x="455.666969017" y="1248"/>
      <point x="523.666969017" y="1264"/>
      <point x="603.666969017" y="1264" type="curve" smooth="yes"/>
      <point x="699.666969017" y="1264"/>
      <point x="767.666969017" y="1200"/>
      <point x="747.666969017" y="1104" type="curve"/>
      <point x="727.666969017" y="1024"/>
      <point x="675.666969017" y="992"/>
      <point x="579.666969017" y="912" type="curve" smooth="yes"/>
    </contour>
    <contour>
      <point x="479.666969017" y="0" type="line"/>
      <point x="539.666969017" y="288" type="line"/>
      <point x="267.666969017" y="288" type="line"/>
      <point x="207.666969017" y="0" type="line"/>
    </contour>
  </outline>
</glyph>
<glyph name="at" format="1">
  <advance width="1856.81085984"/>
  <unicode hex="0040"/>
  <outline>
    <contour>
      <point x="1065.63981942" y="288" type="line" smooth="yes"/>
      <point x="1029.63981942" y="128"/>
      <point x="1145.63981942" y="-32"/>
      <point x="1305.63981942" y="-32" type="curve"/>
      <point x="1461.63981942" y="-32"/>
      <point x="1765.63981942" y="32"/>
      <point x="1869.63981942" y="512" type="curve" smooth="yes"/>
      <point x="1909.63981942" y="704" type="line" smooth="yes"/>
      <point x="2013.63981942" y="1184"/>
      <point x="1761.63981942" y="1504"/>
      <point x="1249.63981942" y="1504" type="curve"/>
      <point x="801.639819416" y="1504"/>
      <point x="349.639819416" y="1184"/>
      <point x="245.639819416" y="704" type="curve" smooth="yes"/>
      <point x="205.639819416" y="512" type="line" smooth="yes"/>
      <point x="77.6398194157" y="-96"/>
      <point x="485.639819416" y="-288"/>
      <point x="865.639819416" y="-288" type="curve"/>
      <point x="905.639819416" y="-112" type="line"/>
      <point x="589.639819416" y="-112"/>
      <point x="293.639819416" y="32"/>
      <point x="409.639819416" y="576" type="curve" smooth="yes"/>
      <point x="425.639819416" y="640" type="line" smooth="yes"/>
      <point x="513.639819416" y="1056"/>
      <point x="853.639819416" y="1328"/>
      <point x="1209.63981942" y="1328" type="curve"/>
      <point x="1625.63981942" y="1328"/>
      <point x="1789.63981942" y="1044"/>
      <point x="1705.63981942" y="640" type="curve" smooth="yes"/>
      <point x="1689.63981942" y="576" type="line" smooth="yes"/>
      <point x="1601.63981942" y="160"/>
      <point x="1441.63981942" y="152"/>
      <point x="1377.63981942" y="152" type="curve"/>
      <point x="1249.63981942" y="152"/>
      <point x="1245.63981942" y="336"/>
      <point x="1293.63981942" y="452" type="curve" smooth="yes"/>
      <point x="1533.63981942" y="1024" type="line"/>
      <point x="1321.63981942" y="1024" type="line"/>
      <point x="1009.63981942" y="296" type="line"/>
      <point x="1065.63981942" y="296" type="line"/>
    </contour>
    <contour>
      <point x="1229.63981942" y="872" type="curve"/>
      <point x="1341.63981942" y="872" type="line"/>
      <point x="1533.63981942" y="1024" type="line"/>
      <point x="1465.63981942" y="1044"/>
      <point x="1385.63981942" y="1052"/>
      <point x="1281.63981942" y="1052" type="curve"/>
      <point x="1049.63981942" y="1052"/>
      <point x="693.639819416" y="860"/>
      <point x="601.639819416" y="428" type="curve" smooth="yes"/>
      <point x="565.639819416" y="252"/>
      <point x="653.639819416" y="168"/>
      <point x="801.639819416" y="168" type="curve"/>
      <point x="957.639819416" y="168"/>
      <point x="1125.63981942" y="324"/>
      <point x="1169.63981942" y="424" type="curve"/>
      <point x="1105.63981942" y="508" type="line"/>
      <point x="1049.63981942" y="376"/>
      <point x="953.639819416" y="352"/>
      <point x="901.639819416" y="352" type="curve"/>
      <point x="825.639819416" y="352"/>
      <point x="797.639819416" y="404"/>
      <point x="861.639819416" y="556" type="curve"/>
      <point x="941.639819416" y="740"/>
      <point x="1085.63981942" y="872"/>
    </contour>
  </outline>
</glyph>
<glyph name="A" format="1">
  <advance width="1048.0"/>
  <unicode hex="0041"/>
  <outline>
    <contour>
      <point x="896" y="1472" type="curve"/>
      <point x="664" y="1472" type="line"/>
      <point x="664" y="1472"/>
      <point x="32" y="0"/>
      <point x="32" y="0" type="curve"/>
      <point x="296" y="0" type="line"/>
      <point x="296" y="0"/>
      <point x="896" y="1472"/>
    </contour>
    <contour>
      <point x="352.0" y="448.0" type="line"/>
      <point x="300.0" y="208.0" type="line"/>
      <point x="812.0" y="208.0" type="line"/>
      <point x="864.0" y="448.0" type="line"/>
    </contour>
    <contour>
      <point x="752" y="1472" type="line"/>
      <point x="752" y="1472"/>
      <point x="752" y="0"/>
      <point x="752" y="0" type="curve"/>
      <point x="1016.0" y="0.0" type="line"/>
      <point x="1016.0" y="0.0"/>
      <point x="1016.0" y="1472.0"/>
      <point x="1016.0" y="1472.0" type="curve"/>
    </contour>
  </outline>
</glyph>
<glyph name="B" format="1">
  <advance width="1093.14653275"/>
  <unicode hex="0042"/>
  <outline>
    <contour>
      <point x="544.883258778" y="0" type="curve"/>
      <point x="928.883258778" y="0"/>
      <point x="1128.88325878" y="244"/>
      <point x="1128.88325878" y="532" type="curve" smooth="yes"/>
      <point x="1128.88325878" y="760"/>
      <point x="908.883258778" y="816"/>
      <point x="732.883258778" y="816.0" type="curve"/>
      <point x="540.883258778" y="816.0" type="line"/>
      <point x="680.883258778" y="1472.0" type="line"/>
      <point x="680.883258778" y="1472.0"/>
      <point x="408.883258778" y="1472.0"/>
      <point x="408.883258778" y="1472.0" type="curve"/>
      <point x="96.8832587783" y="0.0" type="line"/>
      <point x="96.8832587783" y="0.0"/>
      <point x="544.883258778" y="0"/>
    </contour>
    <contour>
      <point x="564.883258778" y="1232.0" type="line"/>
      <point x="772.883258778" y="1232.0" type="line"/>
      <point x="868.883258778" y="1232.0"/>
      <point x="916.883258778" y="1172.0"/>
      <point x="916.883258778" y="1104.0" type="curve" smooth="yes"/>
      <point x="916.883258778" y="988.0"/>
      <point x="832.647964661" y="880.0"/>
      <point x="700.883258778" y="880.0" type="curve"/>
      <point x="492.883258778" y="880.0" type="line"/>
      <point x="456.883258778" y="720.0" type="line"/>
      <point x="696.883258778" y="720" type="line"/>
      <point x="940.883258778" y="720"/>
      <point x="1200.88325878" y="852"/>
      <point x="1200.88325878" y="1184.0" type="curve" smooth="yes"/>
      <point x="1200.88325878" y="1360"/>
      <point x="1076.88325878" y="1472"/>
      <point x="776.883258778" y="1472" type="curve"/>
      <point x="616.883258778" y="1472.0" type="line"/>
    </contour>
    <contour>
      <point x="856.883258778" y="496.0" type="curve" smooth="yes"/>
      <point x="856.883258778" y="376.0"/>
      <point x="752.883258778" y="240.0"/>
      <point x="612.883258778" y="240.0" type="curve"/>
      <point x="420.883258778" y="240.0" type="line"/>
      <point x="508.883258778" y="656.0" type="line"/>
      <point x="700.883258778" y="656.0" type="line"/>
      <point x="796.883258778" y="656.0"/>
      <point x="856.883258778" y="588.0"/>
    </contour>
  </outline>
</glyph>
<glyph name="C" format="1">
  <advance width="826.707483042"/>
  <unicode hex="0043"/>
  <outline>
    <contour>
      <point x="798.108388029" y="16.0" type="curve"/>
      <point x="846.108388029" y="256.0" type="line"/>
      <point x="778.108388029" y="224.0"/>
      <point x="694.108388029" y="208.0"/>
      <point x="614.108388029" y="208.0" type="curve"/>
      <point x="454.108388029" y="208.0"/>
      <point x="414.108388029" y="320.0"/>
      <point x="446.108388029" y="480.0" type="curve"/>
      <point x="554.108388029" y="992.0" type="line"/>
      <point x="590.108388029" y="1152.0"/>
      <point x="678.108388029" y="1264.0"/>
      <point x="838.108388029" y="1264.0" type="curve"/>
      <point x="918.108388029" y="1264.0"/>
      <point x="994.108388029" y="1248.0"/>
      <point x="1050.10838803" y="1216.0" type="curve"/>
      <point x="1102.10838803" y="1456.0" type="line"/>
      <point x="1074.10838803" y="1472.0"/>
      <point x="986.108388029" y="1504.0"/>
      <point x="890.108388029" y="1504.0" type="curve"/>
      <point x="602.108388029" y="1504.0"/>
      <point x="338.108388029" y="1344"/>
      <point x="282.108388029" y="1024.0" type="curve"/>
      <point x="162.108388029" y="448.0" type="line"/>
      <point x="106.108388029" y="192.0"/>
      <point x="274.108388029" y="-32.0"/>
      <point x="562.108388029" y="-32.0" type="curve"/>
      <point x="658.108388029" y="-32.0"/>
      <point x="762.108388029" y="0.0"/>
    </contour>
  </outline>
</glyph>
<glyph name="D" format="1">
  <advance width="1026.85610918"/>
  <unicode hex="0044"/>
  <outline>
    <contour>
      <point x="528.883258778" y="0.0" type="line"/>
      <point x="880.883258778" y="0"/>
      <point x="1000.88325878" y="192.0"/>
      <point x="1064.88325878" y="480.0" type="curve"/>
      <point x="1172.88325878" y="992.0" type="line"/>
      <point x="1232.88325878" y="1280.0"/>
      <point x="1032.88325878" y="1472"/>
      <point x="712.883258778" y="1472" type="curve"/>
      <point x="552.883258778" y="1472" type="line"/>
      <point x="500.883258778" y="1232" type="line"/>
      <point x="724.883258778" y="1232" type="line"/>
      <point x="852.883258778" y="1232"/>
      <point x="932.883258778" y="1152"/>
      <point x="892.883258778" y="960" type="curve"/>
      <point x="796.883258778" y="512" type="line"/>
      <point x="756.883258778" y="320"/>
      <point x="644.883258778" y="240.0"/>
      <point x="516.883258778" y="240.0" type="curve"/>
      <point x="292.883258778" y="240.0" type="line"/>
      <point x="240.883258778" y="0.0" type="line"/>
    </contour>
    <contour>
      <point x="368.883258778" y="0.0" type="line"/>
      <point x="680.883258778" y="1472" type="line"/>
      <point x="408.883258778" y="1472" type="line"/>
      <point x="408.883258778" y="1472"/>
      <point x="96.8832587783" y="0.0"/>
      <point x="96.8832587783" y="0.0" type="curve"/>
    </contour>
  </outline>
</glyph>
<glyph name="E" format="1">
  <advance width="865.869683977"/>
  <unicode hex="0045"/>
  <outline>
    <contour>
      <point x="96.8832587783" y="0" type="line"/>
      <point x="96.8832587783" y="0"/>
      <point x="800.883258778" y="0"/>
      <point x="800.883258778" y="0" type="curve"/>
      <point x="852.883258778" y="240" type="line"/>
      <point x="420.883258778" y="240" type="line"/>
      <point x="508.883258778" y="656" type="line"/>
      <point x="876.883258778" y="656" type="line"/>
      <point x="928.883258778" y="896" type="line"/>
      <point x="560.883258778" y="896" type="line"/>
      <point x="628.883258778" y="1232" type="line"/>
      <point x="1060.88325878" y="1232" type="line"/>
      <point x="1060.88325878" y="1232"/>
      <point x="1112.88325878" y="1472"/>
      <point x="1112.88325878" y="1472" type="curve"/>
      <point x="1112.88325878" y="1472"/>
      <point x="408.883258778" y="1472"/>
      <point x="408.883258778" y="1472" type="curve"/>
    </contour>
  </outline>
</glyph>
<glyph name="F" format="1">
  <advance width="864.0"/>
  <unicode hex="0046"/>
  <outline>
    <contour>
      <point x="96.8832587783" y="0" type="line"/>
      <point x="96.8832587783" y="0"/>
      <point x="368.883258778" y="0"/>
      <point x="368.883258778" y="0" type="curve"/>
      <point x="368.883258778" y="0"/>
      <point x="508.883258778" y="656"/>
      <point x="508.883258778" y="656" type="curve"/>
      <point x="876.883258778" y="656" type="line"/>
      <point x="928.883258778" y="896" type="line"/>
      <point x="560.883258778" y="896" type="line"/>
      <point x="628.883258778" y="1232" type="line"/>
      <point x="1060.88325878" y="1232" type="line"/>
      <point x="1112.88325878" y="1472" type="line"/>
      <point x="1112.88325878" y="1472"/>
      <point x="408.883258778" y="1472"/>
      <point x="408.883258778" y="1472" type="curve"/>
    </contour>
  </outline>
</glyph>
<glyph name="G" format="1">
  <advance width="994.450679256"/>
  <unicode hex="0047"/>
  <outline>
    <contour>
      <point x="957.65791915" y="128.0" type="curve"/>
      <point x="761.65791915" y="272.0" type="line"/>
      <point x="709.65791915" y="240.0"/>
      <point x="669.65791915" y="208.0"/>
      <point x="605.65791915" y="208.0" type="curve"/>
      <point x="445.65791915" y="208.0"/>
      <point x="405.65791915" y="320.0"/>
      <point x="437.65791915" y="480.0" type="curve"/>
      <point x="549.65791915" y="992.0" type="line"/>
      <point x="581.65791915" y="1152.0"/>
      <point x="733.65791915" y="1264.0"/>
      <point x="893.65791915" y="1264.0" type="curve"/>
      <point x="973.65791915" y="1264.0"/>
      <point x="1065.65791915" y="1248.0"/>
      <point x="1125.65791915" y="1216.0" type="curve"/>
      <point x="1173.65791915" y="1456.0" type="line"/>
      <point x="1145.65791915" y="1472.0"/>
      <point x="977.65791915" y="1504.0"/>
      <point x="881.65791915" y="1504.0" type="curve"/>
      <point x="593.65791915" y="1504.0"/>
      <point x="337.65791915" y="1280.0"/>
      <point x="281.65791915" y="1024.0" type="curve"/>
      <point x="161.65791915" y="448.0" type="line"/>
      <point x="105.65791915" y="192.0"/>
      <point x="265.65791915" y="-32.0"/>
      <point x="553.65791915" y="-32.0" type="curve"/>
      <point x="681.65791915" y="-32.0"/>
      <point x="837.65791915" y="16.0"/>
    </contour>
    <contour>
      <point x="685.65791915" y="128.0" type="line"/>
      <point x="957.65791915" y="128.0" type="line"/>
      <point x="1093.65791915" y="768.0" type="line"/>
      <point x="821.65791915" y="768.0" type="line"/>
    </contour>
    <contour>
      <point x="957.65791915" y="128" type="curve"/>
      <point x="761.65791915" y="272" type="line"/>
      <point x="709.65791915" y="240"/>
      <point x="669.65791915" y="208"/>
      <point x="605.65791915" y="208" type="curve"/>
      <point x="445.65791915" y="208"/>
      <point x="405.65791915" y="320"/>
      <point x="437.65791915" y="480" type="curve"/>
      <point x="549.65791915" y="992" type="line"/>
      <point x="581.65791915" y="1152"/>
      <point x="733.65791915" y="1264"/>
      <point x="893.65791915" y="1264" type="curve"/>
      <point x="973.65791915" y="1264"/>
      <point x="1065.65791915" y="1248"/>
      <point x="1125.65791915" y="1216" type="curve"/>
      <point x="1173.65791915" y="1456" type="line"/>
      <point x="1145.65791915" y="1472"/>
      <point x="977.65791915" y="1504"/>
      <point x="881.65791915" y="1504" type="curve"/>
      <point x="593.65791915" y="1504"/>
      <point x="337.65791915" y="1280"/>
      <point x="281.65791915" y="1024" type="curve"/>
      <point x="161.65791915" y="448" type="line"/>
      <point x="105.65791915" y="192"/>
      <point x="265.65791915" y="-32"/>
      <point x="553.65791915" y="-32" type="curve"/>
      <point x="681.65791915" y="-32"/>
      <point x="837.65791915" y="16"/>
    </contour>
    <contour>
      <point x="685.65791915" y="128" type="line"/>
      <point x="957.65791915" y="128" type="line"/>
      <point x="1093.65791915" y="768" type="line"/>
      <point x="821.65791915" y="768" type="line"/>
    </contour>
  </outline>
</glyph>
<glyph name="H" format="1">
  <advance width="1072.88325878"/>
  <unicode hex="0048"/>
  <outline>
    <contour>
      <point x="96.8832587783" y="0" type="line"/>
      <point x="96.8832587783" y="0"/>
      <point x="376.883258778" y="0.0"/>
      <point x="376.883258778" y="0.0" type="curve"/>
      <point x="516.883258778" y="656.0" type="line"/>
      <point x="836.883258778" y="656.0" type="line"/>
      <point x="696.883258778" y="0.0" type="line"/>
      <point x="976.883258778" y="0" type="line"/>
      <point x="1288.88325878" y="1472" type="line"/>
      <point x="1008.88325878" y="1472.0" type="line"/>
      <point x="888.883258778" y="896.0" type="line"/>
      <point x="568.883258778" y="896.0" type="line"/>
      <point x="688.883258778" y="1472.0" type="line"/>
      <point x="408.883258778" y="1472" type="line"/>
    </contour>
  </outline>
</glyph>
<glyph name="I" format="1">
  <advance width="456.883258778"/>
  <unicode hex="0049"/>
  <outline>
    <contour>
      <point x="96.8832587783" y="0" type="curve"/>
      <point x="360.883258778" y="0" type="line"/>
      <point x="672.883258778" y="1472" type="line"/>
      <point x="408.883258778" y="1472" type="line"/>
      <point x="148.883258778" y="240"/>
      <point x="96.8832587783" y="0"/>
    </contour>
  </outline>
</glyph>
<glyph name="J" format="1">
  <advance width="706.130316023"/>
  <unicode hex="004A"/>
  <outline>
    <contour>
      <point x="651.013574801" y="1472" type="line"/>
      <point x="435.013574801" y="448" type="line"/>
      <point x="411.013574801" y="336"/>
      <point x="327.013574801" y="208"/>
      <point x="207.013574801" y="208" type="curve" smooth="yes"/>
      <point x="143.013574801" y="208"/>
      <point x="115.013574801" y="224"/>
      <point x="83.0135748008" y="240" type="curve"/>
      <point x="39.0135748008" y="16" type="line"/>
      <point x="63.0135748008" y="-16"/>
      <point x="155.013574801" y="-32"/>
      <point x="219.013574801" y="-32" type="curve" smooth="yes"/>
      <point x="507.013574801" y="-32"/>
      <point x="659.013574801" y="192"/>
      <point x="719.013574801" y="480" type="curve"/>
      <point x="931.013574801" y="1472" type="line"/>
    </contour>
  </outline>
</glyph>
<glyph name="K" format="1">
  <advance width="1008.88325878"/>
  <unicode hex="004B"/>
  <outline>
    <contour>
      <point x="376.883258778" y="0" type="line"/>
      <point x="688.883258778" y="1472" type="line"/>
      <point x="408.883258778" y="1472" type="line"/>
      <point x="96.8832587783" y="0" type="line"/>
    </contour>
    <contour>
      <point x="976.883258778" y="0" type="line"/>
      <point x="976.883258778" y="0"/>
      <point x="808.883258778" y="800"/>
      <point x="808.883258778" y="800" type="curve"/>
      <point x="808.883258778" y="800"/>
      <point x="1288.88325878" y="1472"/>
      <point x="1288.88325878" y="1472" type="curve"/>
      <point x="1024.88325878" y="1472" type="line"/>
      <point x="544.883258778" y="800" type="line"/>
      <point x="512.883258778" y="800" type="line"/>
      <point x="512.883258778" y="800"/>
      <point x="680.883258778" y="0"/>
      <point x="680.883258778" y="0" type="curve"/>
    </contour>
  </outline>
</glyph>
<glyph name="L" format="1">
  <advance width="841.869683977"/>
  <unicode hex="004C"/>
  <outline>
    <contour>
      <point x="96.8832587783" y="0" type="line"/>
      <point x="96.8832587783" y="0"/>
      <point x="808.883258778" y="0.0"/>
      <point x="808.883258778" y="0.0" type="curve"/>
      <point x="860.883258778" y="240.0" type="line"/>
      <point x="428.883258778" y="240.0" type="line"/>
      <point x="688.883258778" y="1472.0" type="line"/>
      <point x="408.883258778" y="1472" type="line"/>
    </contour>
  </outline>
</glyph>
<glyph name="M" format="1">
  <advance width="1296.88325878"/>
  <unicode hex="004D"/>
  <outline>
    <contour>
      <point x="568.883258778" y="896" type="line"/>
      <point x="756.883258778" y="512" type="line"/>
      <point x="1112.88325878" y="896" type="line"/>
      <point x="920.883258778" y="0" type="line"/>
      <point x="1200.88325878" y="0" type="line"/>
      <point x="1512.88325878" y="1472" type="line"/>
      <point x="1312.88325878" y="1472" type="line"/>
      <point x="844.883258778" y="928" type="line"/>
      <point x="608.883258778" y="1472" type="line"/>
      <point x="408.883258778" y="1472" type="line"/>
      <point x="96.8832587783" y="0" type="line"/>
      <point x="376.883258778" y="0" type="line"/>
    </contour>
  </outline>
</glyph>
<glyph name="N" format="1">
  <advance width="1120.88325878"/>
  <unicode hex="004E"/>
  <outline>
    <contour>
      <point x="552.883258778" y="832" type="line"/>
      <point x="792.883258778" y="0" type="line"/>
      <point x="1024.88325878" y="0" type="line"/>
      <point x="1336.88325878" y="1472" type="line"/>
      <point x="1056.88325878" y="1472" type="line"/>
      <point x="880.883258778" y="640" type="line"/>
      <point x="640.883258778" y="1472" type="line"/>
      <point x="408.883258778" y="1472" type="line"/>
      <point x="96.8832587783" y="0" type="line"/>
      <point x="376.883258778" y="0" type="line"/>
    </contour>
  </outline>
</glyph>
<glyph name="O" format="1">
  <advance width="1138.99617722"/>
  <unicode hex="004F"/>
  <outline>
    <contour>
      <point x="1165.94911894" y="432" type="curve"/>
      <point x="1273.94911894" y="936" type="line"/>
      <point x="1281.94911894" y="976"/>
      <point x="1285.94911894" y="1016"/>
      <point x="1285.94911894" y="1052" type="curve" smooth="yes"/>
      <point x="1285.94911894" y="1280"/>
      <point x="1125.94911894" y="1504"/>
      <point x="837.949118942" y="1504" type="curve"/>
      <point x="549.949118942" y="1504"/>
      <point x="349.949118942" y="1328"/>
      <point x="289.949118942" y="1040" type="curve"/>
      <point x="177.949118942" y="536" type="line"/>
      <point x="169.949118942" y="500"/>
      <point x="165.949118942" y="460"/>
      <point x="165.949118942" y="424" type="curve" smooth="yes"/>
      <point x="165.949118942" y="192"/>
      <point x="325.949118942" y="-32"/>
      <point x="637.949118942" y="-32" type="curve"/>
      <point x="989.949118942" y="-32"/>
      <point x="1105.94911894" y="144"/>
    </contour>
    <contour>
      <point x="997.949118942" y="968" type="curve" smooth="yes"/>
      <point x="881.949118942" y="400" type="line"/>
      <point x="853.949118942" y="272"/>
      <point x="773.949118942" y="208"/>
      <point x="645.949118942" y="208" type="curve"/>
      <point x="525.949118942" y="208"/>
      <point x="445.949118942" y="332"/>
      <point x="445.949118942" y="448" type="curve" smooth="yes"/>
      <point x="445.949118942" y="468"/>
      <point x="449.949118942" y="484"/>
      <point x="453.949118942" y="504" type="curve"/>
      <point x="569.949118942" y="1052" type="line"/>
      <point x="597.949118942" y="1196"/>
      <point x="673.949118942" y="1264"/>
      <point x="817.949118942" y="1264" type="curve"/>
      <point x="961.949118942" y="1264"/>
      <point x="1033.94911894" y="1144"/>
    </contour>
  </outline>
</glyph>
<glyph name="P" format="1">
  <advance width="1028.31745698"/>
  <unicode hex="0050"/>
  <outline>
    <contour>
      <point x="604.883258778" y="512.0" type="line"/>
      <point x="991.815740036" y="512.0"/>
      <point x="1184.88325878" y="808.12123996"/>
      <point x="1184.88325878" y="1112.0" type="curve" smooth="yes"/>
      <point x="1184.88325878" y="1332.0"/>
      <point x="1036.88325878" y="1472.0"/>
      <point x="744.883258778" y="1472.0" type="curve"/>
      <point x="552.883258778" y="1472.0" type="line"/>
      <point x="500.883258778" y="1232.0" type="line"/>
      <point x="724.883258778" y="1232.0" type="line"/>
      <point x="868.883258778" y="1232.0"/>
      <point x="924.883258778" y="1120.0"/>
      <point x="900.883258778" y="992.0" type="curve"/>
      <point x="872.883258778" y="864.0"/>
      <point x="768.883258778" y="752.0"/>
      <point x="624.883258778" y="752.0" type="curve"/>
      <point x="400.883258778" y="752.0" type="line"/>
      <point x="348.883258778" y="512.0" type="line"/>
    </contour>
    <contour>
      <point x="688.883258778" y="1472" type="curve"/>
      <point x="688.883258778" y="1472"/>
      <point x="408.883258778" y="1472.0"/>
      <point x="408.883258778" y="1472.0" type="curve"/>
      <point x="96.8832587783" y="0.0" type="line"/>
      <point x="96.8832587783" y="0.0"/>
      <point x="376.883258778" y="0"/>
      <point x="376.883258778" y="0" type="curve"/>
      <point x="376.883258778" y="0"/>
      <point x="688.883258778" y="1472"/>
    </contour>
    <contour>
      <point x="688.883258778" y="1472" type="line"/>
    </contour>
  </outline>
</glyph>
<glyph name="Q" format="1">
  <advance width="1172.81147794"/>
  <unicode hex="0051"/>
  <outline>
    <contour>
      <point x="1165.94911894" y="432.0" type="curve"/>
      <point x="1273.94911894" y="936.0" type="line"/>
      <point x="1281.94911894" y="976.0"/>
      <point x="1285.94911894" y="1016.0"/>
      <point x="1285.94911894" y="1052.0" type="curve" smooth="yes"/>
      <point x="1285.94911894" y="1280.0"/>
      <point x="1125.94911894" y="1504.0"/>
      <point x="837.949118942" y="1504.0" type="curve"/>
      <point x="549.949118942" y="1504.0"/>
      <point x="349.949118942" y="1328.0"/>
      <point x="289.949118942" y="1040.0" type="curve"/>
      <point x="177.949118942" y="536.0" type="line"/>
      <point x="169.949118942" y="500.0"/>
      <point x="165.949118942" y="460.0"/>
      <point x="165.949118942" y="424.0" type="curve" smooth="yes"/>
      <point x="165.949118942" y="192.0"/>
      <point x="285.949118942" y="0.0"/>
      <point x="597.949118942" y="0.0" type="curve"/>
      <point x="949.949118942" y="0.0"/>
      <point x="1105.94911894" y="144.0"/>
    </contour>
    <contour>
      <point x="997.949118942" y="968.0" type="curve" smooth="yes"/>
      <point x="885.949118942" y="416" type="line"/>
      <point x="857.949118942" y="288"/>
      <point x="777.949118942" y="224"/>
      <point x="649.949118942" y="224" type="curve"/>
      <point x="529.949118942" y="224"/>
      <point x="449.949118942" y="348"/>
      <point x="449.949118942" y="464" type="curve" smooth="yes"/>
      <point x="449.949118942" y="484"/>
      <point x="453.949118942" y="500"/>
      <point x="457.949118942" y="520" type="curve"/>
      <point x="569.949118942" y="1052.0" type="line"/>
      <point x="597.949118942" y="1196.0"/>
      <point x="673.949118942" y="1264.0"/>
      <point x="817.949118942" y="1264.0" type="curve"/>
      <point x="961.949118942" y="1264.0"/>
      <point x="1033.94911894" y="1144.0"/>
    </contour>
    <contour>
      <point x="1124.81147794" y="0.0" type="line"/>
      <point x="1052.81147794" y="256.0" type="line"/>
      <point x="597.949118942" y="144.0" type="line"/>
      <point x="596.811477944" y="0.0" type="line"/>
    </contour>
  </outline>
</glyph>
<glyph name="R" format="1">
  <advance width="1112.88325878"/>
  <unicode hex="0052"/>
  <outline>
    <contour>
      <point x="604.883258778" y="512" type="line"/>
      <point x="956.883258778" y="512"/>
      <point x="1184.88325878" y="772"/>
      <point x="1185.88325878" y="1115.0" type="curve" smooth="yes"/>
      <point x="1184.88325878" y="1332"/>
      <point x="1036.88325878" y="1472"/>
      <point x="744.883258778" y="1472" type="curve"/>
      <point x="552.883258778" y="1472.0" type="line"/>
      <point x="500.883258778" y="1232.0" type="line"/>
      <point x="724.883258778" y="1232.0" type="line"/>
      <point x="868.883258778" y="1232.0"/>
      <point x="924.883258778" y="1120.0"/>
      <point x="900.883258778" y="992.0" type="curve"/>
      <point x="872.883258778" y="864.0"/>
      <point x="768.883258778" y="752.0"/>
      <point x="624.883258778" y="752.0" type="curve"/>
      <point x="400.883258778" y="752.0" type="line"/>
      <point x="348.883258778" y="512.0" type="line"/>
    </contour>
    <contour>
      <point x="688.883258778" y="1472" type="line"/>
    </contour>
    <contour>
      <point x="688.883258778" y="1472" type="curve"/>
      <point x="688.883258778" y="1472"/>
      <point x="408.883258778" y="1472"/>
      <point x="408.883258778" y="1472" type="curve"/>
      <point x="96.8832587783" y="0" type="line"/>
      <point x="96.8832587783" y="0"/>
      <point x="376.883258778" y="0"/>
      <point x="376.883258778" y="0" type="curve"/>
      <point x="376.883258778" y="0"/>
      <point x="688.883258778" y="1472"/>
    </contour>
    <contour>
      <point x="608.883258778" y="640" type="line"/>
      <point x="608.883258778" y="640"/>
      <point x="760.883258778" y="0"/>
      <point x="760.883258778" y="0" type="curve"/>
      <point x="1048.88325878" y="0" type="line"/>
      <point x="1048.88325878" y="0"/>
      <point x="896.883258778" y="640"/>
      <point x="896.883258778" y="640" type="curve"/>
    </contour>
  </outline>
</glyph>
<glyph name="S" format="1">
  <advance width="822.17804278"/>
  <unicode hex="0053"/>
  <outline>
    <contour>
      <point x="801.133129719" y="720.0" type="curve" smooth="yes"/>
      <point x="649.133129719" y="912.0" type="line" smooth="yes"/>
      <point x="617.133129719" y="952"/>
      <point x="545.133129719" y="1028"/>
      <point x="545.133129719" y="1092" type="curve"/>
      <point x="545.133129719" y="1180"/>
      <point x="629.133129719" y="1264"/>
      <point x="757.133129719" y="1264.0" type="curve" smooth="yes"/>
      <point x="837.133129719" y="1264"/>
      <point x="909.133129719" y="1232.0"/>
      <point x="969.133129719" y="1200.0" type="curve"/>
      <point x="1017.13312972" y="1440.0" type="line"/>
      <point x="965.133129719" y="1488.0"/>
      <point x="825.133129719" y="1504"/>
      <point x="713.133129719" y="1504" type="curve"/>
      <point x="389.133129719" y="1504"/>
      <point x="265.133129719" y="1288"/>
      <point x="265.133129719" y="1013.0" type="curve" smooth="yes"/>
      <point x="265.133129719" y="920"/>
      <point x="297.133129719" y="856"/>
      <point x="365.133129719" y="768.0" type="curve" smooth="yes"/>
      <point x="513.133129719" y="576.0" type="line" smooth="yes"/>
      <point x="565.133129719" y="508.0"/>
      <point x="569.133129719" y="480.0"/>
      <point x="569.133129719" y="384.0" type="curve" smooth="yes"/>
      <point x="569.133129719" y="304.0"/>
      <point x="469.133129719" y="208.0"/>
      <point x="373.133129719" y="208.0" type="curve" smooth="yes"/>
      <point x="293.133129719" y="208.0"/>
      <point x="217.133129719" y="224.0"/>
      <point x="129.133129719" y="272.0" type="curve"/>
      <point x="77.1331297192" y="32.0" type="line"/>
      <point x="145.133129719" y="-16.0"/>
      <point x="321.133129719" y="-32.0"/>
      <point x="385.133129719" y="-32.0" type="curve"/>
      <point x="689.133129719" y="-32.0"/>
      <point x="877.133129719" y="164.0"/>
      <point x="877.133129719" y="488.0" type="curve" smooth="yes"/>
      <point x="877.133129719" y="596.0"/>
      <point x="829.133129719" y="684.0"/>
    </contour>
  </outline>
</glyph>
<glyph name="U" format="1">
  <advance width="1058.1601835"/>
  <unicode hex="0055"/>
  <outline>
    <contour>
      <point x="680.883258778" y="1472.0" type="curve"/>
      <point x="468.883258778" y="468.0" type="line" smooth="yes"/>
      <point x="444.883258778" y="348.0"/>
      <point x="516.883258778" y="256.0"/>
      <point x="612.883258778" y="256.0" type="curve" smooth="yes"/>
      <point x="676.883258778" y="256.0"/>
      <point x="748.883258778" y="280.0"/>
      <point x="768.883258778" y="376.0" type="curve" smooth="yes"/>
      <point x="1000.88325878" y="1472.0" type="line"/>
      <point x="1000.88325878" y="1472.0"/>
      <point x="1280.88325878" y="1472.0"/>
      <point x="1280.88325878" y="1472.0" type="curve"/>
      <point x="1056.88325878" y="408.0" type="line" smooth="yes"/>
      <point x="988.883258778" y="88.0"/>
      <point x="832.883258778" y="-32"/>
      <point x="600.883258778" y="-32" type="curve" smooth="yes"/>
      <point x="296.883258778" y="-32"/>
      <point x="140.883258778" y="228.0"/>
      <point x="196.883258778" y="500.0" type="curve" smooth="yes"/>
      <point x="400.883258778" y="1472.0" type="line"/>
      <point x="400.883258778" y="1472.0"/>
      <point x="680.883258778" y="1472.0"/>
    </contour>
  </outline>
</glyph>
<glyph name="V" format="1">
  <advance width="1048.0"/>
  <unicode hex="0056"/>
  <outline>
    <contour>
      <point x="464.883258778" y="0" type="curve"/>
      <point x="696.883258778" y="0" type="line"/>
      <point x="696.883258778" y="0"/>
      <point x="1328.88325878" y="1472"/>
      <point x="1328.88325878" y="1472" type="curve"/>
      <point x="1064.88325878" y="1472" type="line"/>
      <point x="1064.88325878" y="1472"/>
      <point x="464.883258778" y="0"/>
    </contour>
    <contour>
      <point x="624.883258778" y="0" type="line"/>
      <point x="624.883258778" y="0"/>
      <point x="624.883258778" y="1472"/>
      <point x="624.883258778" y="1472" type="curve"/>
      <point x="344.883258778" y="1472" type="line"/>
      <point x="344.883258778" y="1472"/>
      <point x="344.883258778" y="0"/>
      <point x="344.883258778" y="0" type="curve"/>
    </contour>
  </outline>
</glyph>
<glyph name="W" format="1">
  <advance width="1624.0"/>
  <unicode hex="0057"/>
  <outline>
    <contour>
      <point x="1176.88325878" y="0" type="line"/>
      <point x="1176.88325878" y="0"/>
      <point x="1264.88325878" y="1472.0"/>
      <point x="1264.88325878" y="1472.0" type="curve"/>
      <point x="1008.88325878" y="1472.0" type="line"/>
      <point x="1008.88325878" y="1472.0"/>
      <point x="920.883258778" y="0.0"/>
      <point x="920.883258778" y="0.0" type="curve"/>
    </contour>
    <contour>
      <point x="624.883258778" y="0.0" type="line"/>
      <point x="624.883258778" y="0.0"/>
      <point x="624.883258778" y="1472.0"/>
      <point x="624.883258778" y="1472.0" type="curve"/>
      <point x="344.883258778" y="1472.0" type="line"/>
      <point x="344.883258778" y="1472.0"/>
      <point x="344.883258778" y="0.0"/>
      <point x="344.883258778" y="0.0" type="curve"/>
    </contour>
    <contour>
      <point x="1040.88325878" y="0" type="curve"/>
      <point x="1272.88325878" y="0.0" type="line"/>
      <point x="1272.88325878" y="0.0"/>
      <point x="1904.88325878" y="1472.0"/>
      <point x="1904.88325878" y="1472.0" type="curve"/>
      <point x="1640.88325878" y="1472" type="line"/>
      <point x="1640.88325878" y="1472"/>
      <point x="1040.88325878" y="0"/>
    </contour>
    <contour>
      <point x="472.883258778" y="0.0" type="curve"/>
      <point x="672.883258778" y="0" type="line"/>
      <point x="672.883258778" y="0"/>
      <point x="1224.88325878" y="1472"/>
      <point x="1224.88325878" y="1472" type="curve"/>
      <point x="1008.88325878" y="1472.0" type="line"/>
      <point x="1008.88325878" y="1472.0"/>
      <point x="472.883258778" y="0.0"/>
    </contour>
  </outline>
</glyph>
<glyph name="X" format="1">
  <advance width="1120.0"/>
  <unicode hex="0058"/>
  <outline>
    <contour>
      <point x="1088.0" y="0" type="line"/>
      <point x="904.0" y="784" type="line"/>
      <point x="1384.0" y="1472" type="line"/>
      <point x="1120.0" y="1472" type="line"/>
      <point x="640.0" y="784" type="line"/>
      <point x="608.0" y="784" type="line"/>
      <point x="792.0" y="0" type="line"/>
    </contour>
    <contour>
      <point x="408.0" y="1472" type="line"/>
      <point x="408.0" y="1472"/>
      <point x="568.0" y="784"/>
      <point x="568.0" y="784" type="curve"/>
      <point x="568.0" y="784"/>
      <point x="32.0" y="0"/>
      <point x="32.0" y="0" type="curve"/>
      <point x="296.0" y="0" type="line"/>
      <point x="832.0" y="784" type="line"/>
      <point x="864.0" y="784" type="line"/>
      <point x="864.0" y="784"/>
      <point x="704.0" y="1472"/>
      <point x="704.0" y="1472" type="curve"/>
    </contour>
  </outline>
</glyph>
<glyph name="Y" format="1">
  <advance width="1040.0"/>
  <unicode hex="0059"/>
  <outline>
    <contour>
      <point x="360.883258778" y="0" type="line"/>
      <point x="640.883258778" y="0" type="line"/>
      <point x="804.883258778" y="732" type="line"/>
      <point x="516.883258778" y="732" type="line"/>
    </contour>
    <contour>
      <point x="804.883258778" y="732" type="line"/>
      <point x="1320.88325878" y="1472" type="line"/>
      <point x="1056.88325878" y="1472" type="line"/>
      <point x="540.883258778" y="732" type="line"/>
    </contour>
    <contour>
      <point x="344.883258778" y="1472" type="line"/>
      <point x="344.883258778" y="1472"/>
      <point x="516.883258778" y="732"/>
      <point x="516.883258778" y="732" type="curve"/>
      <point x="796.883258778" y="732" type="line"/>
      <point x="796.883258778" y="732"/>
      <point x="640.883258778" y="1472"/>
      <point x="640.883258778" y="1472" type="curve"/>
    </contour>
  </outline>
</glyph>
<glyph name="Z" format="1">
  <advance width="898.856109177"/>
  <unicode hex="005A"/>
  <outline>
    <contour>
      <point x="833.869683977" y="0"/>
      <point x="885.869683977" y="240"/>
      <point x="885.869683977" y="240" type="curve"/>
      <point x="181.869683977" y="240" type="line"/>
      <point x="105.869683977" y="192" type="line"/>
      <point x="105.869683977" y="192"/>
      <point x="65.8696839775" y="0"/>
      <point x="65.8696839775" y="0" type="curve"/>
      <point x="833.869683977" y="0" type="line"/>
    </contour>
    <contour>
      <point x="1105.86968398" y="1280" type="line"/>
      <point x="1105.86968398" y="1280"/>
      <point x="1145.86968398" y="1472"/>
      <point x="1145.86968398" y="1472" type="curve"/>
      <point x="377.869683977" y="1472" type="line"/>
      <point x="377.869683977" y="1472"/>
      <point x="325.869683977" y="1232"/>
      <point x="325.869683977" y="1232" type="curve"/>
      <point x="1029.86968398" y="1232" type="line"/>
    </contour>
    <contour>
      <point x="105.869683977" y="192" type="line"/>
      <point x="413.869683977" y="240" type="line"/>
      <point x="1105.86968398" y="1280" type="line"/>
      <point x="797.869683977" y="1232" type="line"/>
    </contour>
  </outline>
</glyph>
<glyph name="backslash" format="1">
  <advance width="1192.88325878"/>
  <unicode hex="005C"/>
  <outline>
    <contour>
      <point x="632.883258778" y="1472" type="line"/>
      <point x="632.883258778" y="1472"/>
      <point x="408.883258778" y="1472"/>
      <point x="408.883258778" y="1472" type="curve"/>
      <point x="872.883258778" y="0" type="line"/>
      <point x="1096.88325878" y="0" type="line"/>
    </contour>
  </outline>
</glyph>
<glyph name="a" format="1">
  <advance width="982.807743624"/>
  <unicode hex="0061"/>
  <outline>
    <contour>
      <point x="1120" y="1024" type="line"/>
      <point x="860" y="1024" type="line"/>
      <point x="668" y="128" type="line"/>
      <point x="700" y="128" type="line"/>
      <point x="732" y="0" type="line"/>
      <point x="904" y="0" type="line"/>
    </contour>
    <contour>
      <point x="784" y="832" type="curve"/>
      <point x="924" y="832" type="line"/>
      <point x="1120" y="1024" type="line"/>
      <point x="1032" y="1048"/>
      <point x="928" y="1056"/>
      <point x="800" y="1056" type="curve"/>
      <point x="512" y="1056"/>
      <point x="132" y="820"/>
      <point x="132" y="288" type="curve" smooth="yes"/>
      <point x="132" y="68"/>
      <point x="260" y="-32"/>
      <point x="440" y="-32" type="curve"/>
      <point x="632" y="-32"/>
      <point x="800" y="156"/>
      <point x="828" y="284" type="curve"/>
      <point x="724" y="384" type="line"/>
      <point x="688" y="224"/>
      <point x="584" y="192"/>
      <point x="520" y="192" type="curve"/>
      <point x="424" y="192"/>
      <point x="376" y="256"/>
      <point x="416" y="448" type="curve"/>
      <point x="464" y="672"/>
      <point x="612" y="832"/>
    </contour>
  </outline>
</glyph>
<glyph name="b" format="1">
  <advance width="1008.86804813"/>
  <unicode hex="0062"/>
  <outline>
    <contour>
      <point x="408.883258778" y="1472.0" type="line"/>
      <point x="96.8832587783" y="0.0" type="line"/>
      <point x="264.883258778" y="0.0" type="line"/>
      <point x="356.883258778" y="128.0" type="line"/>
      <point x="388.883258778" y="128.0" type="line"/>
      <point x="684.883258778" y="1536.0" type="line"/>
    </contour>
    <contour>
      <point x="752.883258778" y="352.0" type="line"/>
      <point x="736.883258778" y="264.0"/>
      <point x="648.883258778" y="192.0"/>
      <point x="560.883258778" y="192.0" type="curve"/>
      <point x="472.883258778" y="192.0"/>
      <point x="416.883258778" y="264.0"/>
      <point x="432.883258778" y="352.0" type="curve"/>
      <point x="332.883258778" y="320.0" type="line"/>
      <point x="292.883258778" y="128.0"/>
      <point x="384.883258778" y="-32.0"/>
      <point x="576.883258778" y="-32.0" type="curve"/>
      <point x="768.883258778" y="-32.0"/>
      <point x="972.883258778" y="128"/>
      <point x="1012.88325878" y="320" type="curve"/>
      <point x="1092.88325878" y="704" type="line"/>
      <point x="1132.88325878" y="896"/>
      <point x="1000.88325878" y="1056.0"/>
      <point x="808.883258778" y="1056.0" type="curve"/>
      <point x="616.883258778" y="1056.0"/>
      <point x="452.883258778" y="896.0"/>
      <point x="412.883258778" y="704.0" type="curve"/>
      <point x="500.883258778" y="672.0" type="line"/>
      <point x="520.883258778" y="760.0"/>
      <point x="608.883258778" y="832.0"/>
      <point x="696.883258778" y="832.0" type="curve"/>
      <point x="784.883258778" y="832.0"/>
      <point x="840.883258778" y="760.0"/>
      <point x="820.883258778" y="672.0" type="curve"/>
    </contour>
  </outline>
</glyph>
<glyph name="c" format="1">
  <advance width="753.370588448"/>
  <unicode hex="0063"/>
  <outline>
    <contour>
      <point x="709.621719681" y="20" type="curve"/>
      <point x="753.621719681" y="240" type="line"/>
      <point x="685.621719681" y="208"/>
      <point x="649.621719681" y="192"/>
      <point x="553.621719681" y="192" type="curve"/>
      <point x="425.621719681" y="192"/>
      <point x="373.621719681" y="256"/>
      <point x="409.621719681" y="416" type="curve" smooth="yes"/>
      <point x="449.621719681" y="608" type="line" smooth="yes"/>
      <point x="485.621719681" y="768"/>
      <point x="561.621719681" y="832"/>
      <point x="689.621719681" y="832" type="curve"/>
      <point x="785.621719681" y="832"/>
      <point x="813.621719681" y="816"/>
      <point x="869.621719681" y="784" type="curve"/>
      <point x="917.621719681" y="1004" type="line"/>
      <point x="889.621719681" y="1024"/>
      <point x="801.621719681" y="1056"/>
      <point x="721.621719681" y="1056" type="curve"/>
      <point x="449.621719681" y="1056"/>
      <point x="269.621719681" y="956"/>
      <point x="201.621719681" y="640" type="curve" smooth="yes"/>
      <point x="145.621719681" y="384" type="line" smooth="yes"/>
      <point x="93.6217196813" y="128"/>
      <point x="217.621719681" y="-32"/>
      <point x="505.621719681" y="-32" type="curve"/>
      <point x="585.621719681" y="-32"/>
      <point x="669.621719681" y="0"/>
    </contour>
  </outline>
</glyph>
<glyph name="d" format="1">
  <advance width="1009.64268098"/>
  <unicode hex="0064"/>
  <outline>
    <contour>
      <point x="1237.64268098" y="1536" type="line"/>
      <point x="963.285531411" y="1472" type="line"/>
      <point x="679.285531411" y="128" type="line"/>
      <point x="711.285531411" y="128" type="line"/>
      <point x="747.285531411" y="0" type="line"/>
      <point x="913.642680981" y="0" type="line"/>
    </contour>
    <contour>
      <point x="403.285531411" y="352" type="curve"/>
      <point x="471.285531411" y="672" type="line"/>
      <point x="491.285531411" y="760"/>
      <point x="579.285531411" y="832"/>
      <point x="667.285531411" y="832" type="curve"/>
      <point x="755.285531411" y="832"/>
      <point x="811.285531411" y="760"/>
      <point x="791.285531411" y="672" type="curve"/>
      <point x="895.285531411" y="704" type="line"/>
      <point x="935.285531411" y="896"/>
      <point x="843.285531411" y="1056"/>
      <point x="651.285531411" y="1056" type="curve"/>
      <point x="459.285531411" y="1056"/>
      <point x="253.642680981" y="896"/>
      <point x="213.642680981" y="704" type="curve"/>
      <point x="133.642680981" y="320" type="line"/>
      <point x="93.6426809807" y="128"/>
      <point x="227.285531411" y="-32"/>
      <point x="419.285531411" y="-32" type="curve"/>
      <point x="611.285531411" y="-32"/>
      <point x="775.285531411" y="128"/>
      <point x="815.285531411" y="320" type="curve"/>
      <point x="723.285531411" y="352" type="line"/>
      <point x="707.285531411" y="264"/>
      <point x="619.285531411" y="192"/>
      <point x="531.285531411" y="192" type="curve"/>
      <point x="443.285531411" y="192"/>
      <point x="387.285531411" y="264"/>
    </contour>
  </outline>
</glyph>
<glyph name="e" format="1">
  <advance width="945.585520212"/>
  <unicode hex="0065"/>
  <outline>
    <contour>
      <point x="471.243439362" y="672.0" type="line" smooth="yes"/>
      <point x="491.243439362" y="760.0"/>
      <point x="579.243439362" y="832.0"/>
      <point x="667.243439362" y="832.0" type="curve"/>
      <point x="755.243439362" y="832.0"/>
      <point x="811.243439362" y="760.0"/>
      <point x="791.243439362" y="672.0" type="curve" smooth="yes"/>
      <point x="779.243439362" y="608.0" type="line"/>
      <point x="459.243439362" y="608.0" type="line"/>
    </contour>
    <contour>
      <point x="820" y="32" type="curve"/>
      <point x="864" y="240" type="line"/>
      <point x="800" y="224"/>
      <point x="692" y="192"/>
      <point x="564" y="192" type="curve"/>
      <point x="468" y="192"/>
      <point x="380" y="240"/>
      <point x="404" y="352" type="curve" smooth="yes"/>
      <point x="419.243439362" y="416.0" type="line"/>
      <point x="969.621719681" y="416" type="line"/>
      <point x="1017.62171968" y="640" type="line" smooth="yes"/>
      <point x="1069.62171968" y="896"/>
      <point x="939.243439362" y="1056.0"/>
      <point x="651.243439362" y="1056.0" type="curve"/>
      <point x="427.243439362" y="1056.0"/>
      <point x="253.621719681" y="896"/>
      <point x="201.621719681" y="640" type="curve" smooth="yes"/>
      <point x="144" y="384" type="line" smooth="yes"/>
      <point x="84" y="96"/>
      <point x="324" y="-32"/>
      <point x="548" y="-32" type="curve"/>
      <point x="644" y="-32"/>
      <point x="752" y="0"/>
    </contour>
  </outline>
</glyph>
<glyph name="f" format="1">
  <advance width="646.432579522"/>
  <unicode hex="0066"/>
  <outline>
    <contour>
      <point x="428" y="1248" type="curve"/>
      <point x="380" y="1024" type="line"/>
      <point x="252" y="1024" type="line"/>
      <point x="204" y="800" type="line"/>
      <point x="332" y="800" type="line"/>
      <point x="68" y="-448" type="line"/>
      <point x="340" y="-384" type="line"/>
      <point x="592" y="800" type="line"/>
      <point x="784" y="800" type="line"/>
      <point x="832" y="1024" type="line"/>
      <point x="640" y="1024" type="line"/>
      <point x="680" y="1216" type="line"/>
      <point x="688" y="1248"/>
      <point x="716" y="1280"/>
      <point x="760" y="1280" type="curve" smooth="yes"/>
      <point x="816" y="1280"/>
      <point x="852" y="1264"/>
      <point x="880" y="1248" type="curve"/>
      <point x="924" y="1456" type="line"/>
      <point x="896" y="1472"/>
      <point x="808" y="1504"/>
      <point x="744" y="1504" type="curve"/>
      <point x="584" y="1504"/>
      <point x="468" y="1440"/>
    </contour>
  </outline>
</glyph>
<glyph name="g" format="1">
  <advance width="998.34208085"/>
  <unicode hex="0067"/>
  <outline>
    <contour>
      <point x="446.027149602" y="576" type="line"/>
      <point x="478.027149602" y="736"/>
      <point x="622.027149602" y="832"/>
      <point x="782.027149602" y="832" type="curve"/>
      <point x="926.027149602" y="832" type="line"/>
      <point x="1118.0271496" y="1024" type="line"/>
      <point x="1030.0271496" y="1048"/>
      <point x="926.027149602" y="1056"/>
      <point x="798.027149602" y="1056" type="curve"/>
      <point x="510.027149602" y="1056"/>
      <point x="254.027149602" y="896"/>
      <point x="182.027149602" y="544" type="curve"/>
      <point x="166.027149602" y="480" type="line"/>
      <point x="94.0271496016" y="128"/>
      <point x="222.027149602" y="-32"/>
      <point x="446.027149602" y="-32" type="curve"/>
      <point x="638.027149602" y="-32"/>
      <point x="806.027149602" y="160"/>
      <point x="830.027149602" y="288" type="curve" smooth="yes"/>
      <point x="726.027149602" y="384" type="line"/>
      <point x="686.027149602" y="224"/>
      <point x="590.027149602" y="192"/>
      <point x="526.027149602" y="192" type="curve"/>
      <point x="430.027149602" y="192"/>
      <point x="382.027149602" y="288"/>
      <point x="414.027149602" y="448" type="curve"/>
    </contour>
    <contour>
      <point x="628" y="-32" type="line"/>
      <point x="604" y="-144"/>
      <point x="468" y="-192"/>
      <point x="372" y="-192" type="curve"/>
      <point x="244" y="-192"/>
      <point x="152" y="-160"/>
      <point x="92" y="-144" type="curve"/>
      <point x="48" y="-352" type="line"/>
      <point x="108" y="-384"/>
      <point x="228" y="-416"/>
      <point x="356" y="-416" type="curve"/>
      <point x="612" y="-416"/>
      <point x="836" y="-288"/>
      <point x="896" y="0" type="curve" smooth="yes"/>
      <point x="1120" y="1024" type="line"/>
      <point x="960" y="1024" type="line"/>
      <point x="864" y="896" type="line"/>
      <point x="832" y="896" type="line"/>
    </contour>
  </outline>
</glyph>
<glyph name="h" format="1">
  <advance width="1027.24343936"/>
  <unicode hex="0068"/>
  <outline>
    <contour>
      <point x="360.883258778" y="0" type="line"/>
      <point x="360.883258778" y="0"/>
      <point x="688.883258778" y="1536"/>
      <point x="688.883258778" y="1536" type="curve"/>
      <point x="408.883258778" y="1472" type="line"/>
      <point x="96.8832587783" y="0" type="line"/>
    </contour>
    <contour>
      <point x="944.883258778" y="0" type="line"/>
      <point x="1096.88325878" y="704" type="line"/>
      <point x="1136.88325878" y="896"/>
      <point x="1000.88325878" y="1056"/>
      <point x="808.883258778" y="1056" type="curve"/>
      <point x="616.883258778" y="1056"/>
      <point x="456.883258778" y="896"/>
      <point x="416.883258778" y="704" type="curve"/>
      <point x="504.883258778" y="672" type="line"/>
      <point x="524.883258778" y="760"/>
      <point x="608.883258778" y="832"/>
      <point x="696.883258778" y="832" type="curve"/>
      <point x="784.883258778" y="832"/>
      <point x="844.883258778" y="760"/>
      <point x="824.883258778" y="672" type="curve"/>
      <point x="680.883258778" y="0" type="line"/>
    </contour>
  </outline>
</glyph>
<glyph name="i" format="1">
  <advance width="459.189140159"/>
  <unicode hex="0069"/>
  <outline>
    <contour>
      <point x="361.65791915" y="0" type="line"/>
      <point x="577.65791915" y="1024" type="line"/>
      <point x="313.65791915" y="1024" type="line"/>
      <point x="97.6579191501" y="0" type="line"/>
    </contour>
    <contour>
      <point x="621.65791915" y="1216" type="line"/>
      <point x="673.65791915" y="1472" type="line"/>
      <point x="409.65791915" y="1472" type="line"/>
      <point x="357.65791915" y="1216" type="line"/>
    </contour>
  </outline>
</glyph>
<glyph name="j" format="1">
  <advance width="465.585520212"/>
  <unicode hex="006A"/>
  <outline>
    <contour>
      <point x="626.468778991" y="1216" type="line"/>
      <point x="682.468778991" y="1472" type="line"/>
      <point x="410.468778991" y="1472" type="line"/>
      <point x="354.468778991" y="1216" type="line"/>
    </contour>
    <contour>
      <point x="286.468778991" y="-384" type="curve"/>
      <point x="586.468778991" y="1024" type="line"/>
      <point x="314.468778991" y="1024" type="line"/>
      <point x="2.46877899075" y="-448" type="line"/>
      <point x="2.46877899075" y="-448"/>
      <point x="286.468778991" y="-384"/>
    </contour>
  </outline>
</glyph>
<glyph name="k" format="1">
  <advance width="979.225339628"/>
  <unicode hex="006B"/>
  <outline>
    <contour>
      <point x="360.883258778" y="0" type="line"/>
      <point x="688.883258778" y="1536" type="line"/>
      <point x="688.883258778" y="1536"/>
      <point x="408.883258778" y="1472"/>
      <point x="408.883258778" y="1472" type="curve"/>
      <point x="96.8832587783" y="0" type="line"/>
    </contour>
    <contour>
      <point x="944.883258778" y="0" type="line"/>
      <point x="716.883258778" y="512" type="line"/>
      <point x="1164.88325878" y="1024" type="line"/>
      <point x="916.883258778" y="1024" type="line"/>
      <point x="468.883258778" y="512" type="line"/>
      <point x="436.883258778" y="512" type="line"/>
      <point x="664.883258778" y="0" type="line"/>
    </contour>
  </outline>
</glyph>
<glyph name="l" format="1">
  <advance width="458.396380053"/>
  <unicode hex="006C"/>
  <outline>
    <contour>
      <point x="360.883258778" y="0" type="curve"/>
      <point x="688.883258778" y="1536" type="line"/>
      <point x="688.883258778" y="1536"/>
      <point x="408.883258778" y="1472"/>
      <point x="408.883258778" y="1472" type="curve"/>
      <point x="96.8832587783" y="0" type="line"/>
      <point x="96.8832587783" y="0"/>
      <point x="360.883258778" y="0"/>
    </contour>
  </outline>
</glyph>
<glyph name="m" format="1">
  <advance width="1609.65791915"/>
  <unicode hex="006D"/>
  <outline>
    <contour>
      <point x="361.65791915" y="0" type="line"/>
      <point x="553.65791915" y="896" type="line"/>
      <point x="521.65791915" y="896" type="line"/>
      <point x="481.65791915" y="1024" type="line"/>
      <point x="313.65791915" y="1024" type="line"/>
      <point x="97.6579191501" y="0" type="line"/>
    </contour>
    <contour>
      <point x="937.65791915" y="0" type="line"/>
      <point x="1093.65791915" y="704" type="line"/>
      <point x="1137.65791915" y="896"/>
      <point x="1001.65791915" y="1056"/>
      <point x="809.65791915" y="1056" type="curve"/>
      <point x="617.65791915" y="1056"/>
      <point x="457.65791915" y="896"/>
      <point x="413.65791915" y="704" type="curve"/>
      <point x="505.65791915" y="672" type="line"/>
      <point x="521.65791915" y="760"/>
      <point x="609.65791915" y="832"/>
      <point x="697.65791915" y="832" type="curve"/>
      <point x="785.65791915" y="832"/>
      <point x="841.65791915" y="760"/>
      <point x="825.65791915" y="672" type="curve"/>
      <point x="681.65791915" y="0" type="line"/>
    </contour>
    <contour>
      <point x="1529.65791915" y="0" type="line"/>
      <point x="1677.65791915" y="704" type="line"/>
      <point x="1721.65791915" y="896"/>
      <point x="1585.65791915" y="1056"/>
      <point x="1393.65791915" y="1056" type="curve"/>
      <point x="1201.65791915" y="1056"/>
      <point x="1041.65791915" y="896"/>
      <point x="997.65791915" y="704" type="curve"/>
      <point x="1089.65791915" y="672" type="line"/>
      <point x="1105.65791915" y="760"/>
      <point x="1193.65791915" y="832"/>
      <point x="1281.65791915" y="832" type="curve"/>
      <point x="1369.65791915" y="832"/>
      <point x="1425.65791915" y="760"/>
      <point x="1409.65791915" y="672" type="curve"/>
      <point x="1265.65791915" y="0" type="line"/>
    </contour>
  </outline>
</glyph>
<glyph name="n" format="1">
  <advance width="1025.65791915"/>
  <unicode hex="006E"/>
  <outline>
    <contour>
      <point x="945.65791915" y="0" type="line"/>
      <point x="1093.65791915" y="704" type="line"/>
      <point x="1137.65791915" y="896"/>
      <point x="1001.65791915" y="1056"/>
      <point x="809.65791915" y="1056" type="curve"/>
      <point x="617.65791915" y="1056"/>
      <point x="457.65791915" y="896"/>
      <point x="413.65791915" y="704" type="curve"/>
      <point x="505.65791915" y="672" type="line"/>
      <point x="521.65791915" y="760"/>
      <point x="609.65791915" y="832"/>
      <point x="697.65791915" y="832" type="curve"/>
      <point x="785.65791915" y="832"/>
      <point x="841.65791915" y="760"/>
      <point x="825.65791915" y="672" type="curve"/>
      <point x="681.65791915" y="0" type="line"/>
    </contour>
    <contour>
      <point x="361.65791915" y="0" type="line"/>
      <point x="553.65791915" y="896" type="line"/>
      <point x="521.65791915" y="896" type="line"/>
      <point x="481.65791915" y="1024" type="line"/>
      <point x="313.65791915" y="1024" type="line"/>
      <point x="97.6579191501" y="0" type="line"/>
    </contour>
  </outline>
</glyph>
<glyph name="o" format="1">
  <advance width="977.585520212"/>
  <unicode hex="006F"/>
  <outline>
    <contour>
      <point x="513.621719681" y="-32" type="curve"/>
      <point x="769.621719681" y="-32"/>
      <point x="941.621719681" y="128"/>
      <point x="993.621719681" y="384" type="curve" smooth="yes"/>
      <point x="1049.62171968" y="640" type="line" smooth="yes"/>
      <point x="1101.62171968" y="896"/>
      <point x="937.621719681" y="1056"/>
      <point x="681.621719681" y="1056" type="curve"/>
      <point x="425.621719681" y="1056"/>
      <point x="253.621719681" y="896"/>
      <point x="201.621719681" y="640" type="curve" smooth="yes"/>
      <point x="145.621719681" y="384" type="line" smooth="yes"/>
      <point x="93.6217196813" y="128"/>
      <point x="257.621719681" y="-32"/>
    </contour>
    <contour>
      <point x="529.621719681" y="192.0" type="curve"/>
      <point x="441.621719681" y="192.0"/>
      <point x="385.621719681" y="264.0"/>
      <point x="401.621719681" y="352.0" type="curve" smooth="yes"/>
      <point x="473.621719681" y="672.0" type="line" smooth="yes"/>
      <point x="489.621719681" y="760.0"/>
      <point x="577.621719681" y="832.0"/>
      <point x="665.621719681" y="832.0" type="curve"/>
      <point x="753.621719681" y="832.0"/>
      <point x="809.621719681" y="760.0"/>
      <point x="793.621719681" y="672.0" type="curve" smooth="yes"/>
      <point x="721.621719681" y="352.0" type="line" smooth="yes"/>
      <point x="705.621719681" y="264.0"/>
      <point x="617.621719681" y="192.0"/>
    </contour>
  </outline>
</glyph>
<glyph name="p" format="1">
  <advance width="1009.64443771"/>
  <unicode hex="0070"/>
  <outline>
    <contour>
      <point x="1.6579191501" y="-448" type="line"/>
      <point x="279.3158383" y="-384.0" type="line"/>
      <point x="551.3158383" y="896.0" type="line"/>
      <point x="519.3158383" y="896.0" type="line"/>
      <point x="483.3158383" y="1024.0" type="line"/>
      <point x="313.65791915" y="1024" type="line"/>
    </contour>
    <contour>
      <point x="827.3158383" y="672.0" type="curve"/>
      <point x="759.3158383" y="352.0" type="line"/>
      <point x="739.3158383" y="264.0"/>
      <point x="651.3158383" y="192.0"/>
      <point x="563.3158383" y="192.0" type="curve"/>
      <point x="475.3158383" y="192.0"/>
      <point x="419.3158383" y="264.0"/>
      <point x="439.3158383" y="352.0" type="curve"/>
      <point x="335.3158383" y="320.0" type="line"/>
      <point x="295.3158383" y="128.0"/>
      <point x="449.65791915" y="-32.0"/>
      <point x="641.65791915" y="-32.0" type="curve"/>
      <point x="833.65791915" y="-32.0"/>
      <point x="973.65791915" y="128"/>
      <point x="1013.65791915" y="320" type="curve"/>
      <point x="1093.65791915" y="704" type="line"/>
      <point x="1133.65791915" y="896"/>
      <point x="969.65791915" y="1056"/>
      <point x="777.65791915" y="1056" type="curve"/>
      <point x="585.65791915" y="1056"/>
      <point x="455.3158383" y="896.0"/>
      <point x="415.3158383" y="704.0" type="curve"/>
      <point x="507.3158383" y="672.0" type="line"/>
      <point x="523.3158383" y="760.0"/>
      <point x="611.3158383" y="832.0"/>
      <point x="699.3158383" y="832.0" type="curve"/>
      <point x="787.3158383" y="832.0"/>
      <point x="843.3158383" y="760.0"/>
    </contour>
  </outline>
</glyph>
<glyph name="q" format="1">
  <advance width="1012.36923045"/>
  <unicode hex="0071"/>
  <outline>
    <contour>
      <point x="830.027149602" y="-384" type="line"/>
      <point x="830.027149602" y="-384"/>
      <point x="1134.0271496" y="1024"/>
      <point x="1134.0271496" y="1024" type="curve"/>
      <point x="964.054299204" y="1024.0" type="line"/>
      <point x="876.054299204" y="896" type="line"/>
      <point x="844.054299204" y="896" type="line"/>
      <point x="548.054299204" y="-448" type="line"/>
    </contour>
    <contour>
      <point x="452.054299204" y="576.0" type="line"/>
      <point x="484.054299204" y="736.0"/>
      <point x="628.054299204" y="832.0"/>
      <point x="788.054299204" y="832.0" type="curve"/>
      <point x="932.054299204" y="832.0" type="line"/>
      <point x="1134.0271496" y="1024" type="line"/>
      <point x="1046.0271496" y="1048"/>
      <point x="932.054299204" y="1056.0"/>
      <point x="804.054299204" y="1056.0" type="curve"/>
      <point x="516.054299204" y="1056.0"/>
      <point x="254.027149602" y="896"/>
      <point x="182.027149602" y="544" type="curve"/>
      <point x="166.027149602" y="480" type="line"/>
      <point x="94.0271496016" y="128"/>
      <point x="228.054299204" y="-32.0"/>
      <point x="452.054299204" y="-32.0" type="curve"/>
      <point x="644.054299204" y="-32.0"/>
      <point x="812.054299204" y="160.0"/>
      <point x="836.054299204" y="288.0" type="curve" smooth="yes"/>
      <point x="732.054299204" y="384.0" type="line"/>
      <point x="692.054299204" y="224.0"/>
      <point x="596.054299204" y="192.0"/>
      <point x="532.054299204" y="192.0" type="curve"/>
      <point x="436.054299204" y="192.0"/>
      <point x="388.054299204" y="288.0"/>
      <point x="420.054299204" y="448.0" type="curve"/>
    </contour>
  </outline>
</glyph>
<glyph name="r" format="1">
  <advance width="715.400904987"/>
  <unicode hex="0072"/>
  <outline>
    <contour>
      <point x="97.6579191501" y="0" type="line"/>
      <point x="361.65791915" y="0" type="line"/>
      <point x="553.65791915" y="896" type="line"/>
      <point x="521.65791915" y="896" type="line"/>
      <point x="481.65791915" y="1024" type="line"/>
      <point x="313.65791915" y="1024" type="line"/>
    </contour>
    <contour>
      <point x="849.65791915" y="800" type="curve"/>
      <point x="897.65791915" y="1008" type="line"/>
      <point x="885.65791915" y="1040"/>
      <point x="841.65791915" y="1056"/>
      <point x="809.65791915" y="1056" type="curve"/>
      <point x="617.65791915" y="1056"/>
      <point x="457.65791915" y="896"/>
      <point x="413.65791915" y="704" type="curve"/>
      <point x="505.65791915" y="672" type="line"/>
      <point x="521.65791915" y="760"/>
      <point x="609.65791915" y="832"/>
      <point x="697.65791915" y="832" type="curve"/>
      <point x="761.65791915" y="832"/>
      <point x="805.65791915" y="816"/>
    </contour>
  </outline>
</glyph>
<glyph name="s" format="1">
  <advance width="693.595705255"/>
  <unicode hex="0073"/>
  <outline>
    <contour>
      <point x="639.249568189" y="528" type="curve" smooth="yes"/>
      <point x="551.249568189" y="640" type="line" smooth="yes"/>
      <point x="511.249568189" y="688"/>
      <point x="475.249568189" y="736"/>
      <point x="483.249568189" y="768" type="curve" smooth="yes"/>
      <point x="487.249568189" y="800"/>
      <point x="511.249568189" y="832"/>
      <point x="575.249568189" y="832" type="curve" smooth="yes"/>
      <point x="639.249568189" y="832"/>
      <point x="719.249568189" y="800"/>
      <point x="755.249568189" y="784" type="curve"/>
      <point x="803.249568189" y="992" type="line"/>
      <point x="775.249568189" y="1024"/>
      <point x="671.249568189" y="1056"/>
      <point x="559.249568189" y="1056" type="curve" smooth="yes"/>
      <point x="367.249568189" y="1056"/>
      <point x="267.249568189" y="960"/>
      <point x="227.249568189" y="768" type="curve" smooth="yes"/>
      <point x="207.249568189" y="672"/>
      <point x="251.249568189" y="592"/>
      <point x="315.249568189" y="512" type="curve" smooth="yes"/>
      <point x="403.249568189" y="400" type="line" smooth="yes"/>
      <point x="427.249568189" y="368"/>
      <point x="443.249568189" y="320"/>
      <point x="431.249568189" y="272" type="curve" smooth="yes"/>
      <point x="423.249568189" y="224"/>
      <point x="391.249568189" y="192"/>
      <point x="311.249568189" y="192" type="curve" smooth="yes"/>
      <point x="247.249568189" y="192"/>
      <point x="203.249568189" y="208"/>
      <point x="147.249568189" y="240" type="curve"/>
      <point x="99.2495681887" y="32" type="line"/>
      <point x="155.249568189" y="-8"/>
      <point x="231.249568189" y="-32"/>
      <point x="327.249568189" y="-32" type="curve" smooth="yes"/>
      <point x="535.249568189" y="-32"/>
      <point x="647.249568189" y="80"/>
      <point x="687.249568189" y="272" type="curve" smooth="yes"/>
      <point x="703.249568189" y="336"/>
      <point x="703.249568189" y="448"/>
    </contour>
  </outline>
</glyph>
<glyph name="t" format="1">
  <advance width="651.612669814"/>
  <unicode hex="0074"/>
  <outline>
    <contour>
      <point x="425.65791915" y="0" type="line"/>
      <point x="597.65791915" y="800" type="line"/>
      <point x="789.65791915" y="800" type="line"/>
      <point x="833.65791915" y="1024" type="line"/>
      <point x="641.65791915" y="1024" type="line"/>
      <point x="697.65791915" y="1280" type="line"/>
      <point x="697.65791915" y="1280"/>
      <point x="421.65791915" y="1216"/>
      <point x="421.65791915" y="1216" type="curve"/>
      <point x="377.65791915" y="1024" type="line"/>
      <point x="249.65791915" y="1024" type="line"/>
      <point x="205.65791915" y="800" type="line"/>
      <point x="333.65791915" y="800" type="line"/>
      <point x="161.65791915" y="0" type="line"/>
    </contour>
  </outline>
</glyph>
<glyph name="u" format="1">
  <advance width="1025.65791915"/>
  <unicode hex="0075"/>
  <outline>
    <contour>
      <point x="1145.65791915" y="1024" type="line"/>
      <point x="881.65791915" y="1024" type="line"/>
      <point x="689.65791915" y="128" type="line"/>
      <point x="721.65791915" y="128" type="line"/>
      <point x="761.65791915" y="0" type="line"/>
      <point x="929.65791915" y="0" type="line"/>
    </contour>
    <contour>
      <point x="417.65791915" y="352" type="curve"/>
      <point x="561.65791915" y="1024" type="line"/>
      <point x="297.65791915" y="1024" type="line"/>
      <point x="149.65791915" y="320" type="line"/>
      <point x="105.65791915" y="128"/>
      <point x="241.65791915" y="-32"/>
      <point x="433.65791915" y="-32" type="curve"/>
      <point x="625.65791915" y="-32"/>
      <point x="785.65791915" y="128"/>
      <point x="829.65791915" y="320" type="curve"/>
      <point x="737.65791915" y="352" type="line"/>
      <point x="721.65791915" y="264"/>
      <point x="633.65791915" y="192"/>
      <point x="545.65791915" y="192" type="curve"/>
      <point x="457.65791915" y="192"/>
      <point x="401.65791915" y="264"/>
    </contour>
  </outline>
</glyph>
<glyph name="v" format="1">
  <advance width="852.0"/>
  <unicode hex="0076"/>
  <outline>
    <contour>
      <point x="513.65791915" y="0" type="line"/>
      <point x="513.65791915" y="1024" type="line"/>
      <point x="249.65791915" y="1024" type="line"/>
      <point x="249.65791915" y="0" type="line"/>
    </contour>
    <contour>
      <point x="397.65791915" y="0" type="line"/>
      <point x="597.65791915" y="0" type="line"/>
      <point x="1037.65791915" y="1024" type="line"/>
      <point x="773.65791915" y="1024" type="line"/>
    </contour>
  </outline>
</glyph>
<glyph name="w" format="1">
  <advance width="1284.0"/>
  <unicode hex="0077"/>
  <outline>
    <contour>
      <point x="797.65791915" y="0" type="curve"/>
      <point x="1029.65791915" y="0.0" type="line"/>
      <point x="1041.65791915" y="32.0"/>
      <point x="1469.65791915" y="1024.0"/>
      <point x="1469.65791915" y="1024.0" type="curve"/>
      <point x="1213.65791915" y="1024" type="line"/>
      <point x="1213.65791915" y="1024"/>
      <point x="797.65791915" y="0"/>
    </contour>
    <contour>
      <point x="373.65791915" y="0.0" type="curve"/>
      <point x="541.65791915" y="0.0" type="line"/>
      <point x="981.65791915" y="1024.0" type="line"/>
      <point x="765.65791915" y="1024.0" type="line"/>
      <point x="765.65791915" y="1024.0"/>
      <point x="373.65791915" y="0.0"/>
    </contour>
    <contour>
      <point x="933.65791915" y="0.0" type="line"/>
      <point x="981.65791915" y="1024.0" type="line"/>
      <point x="765.65791915" y="1024.0" type="line"/>
      <point x="765.65791915" y="1024.0"/>
      <point x="765.65791915" y="0.0"/>
      <point x="765.65791915" y="0.0" type="curve"/>
    </contour>
    <contour>
      <point x="509.65791915" y="0.0" type="line"/>
      <point x="509.65791915" y="0.0"/>
      <point x="509.65791915" y="1024.0"/>
      <point x="509.65791915" y="1024.0" type="curve"/>
      <point x="249.65791915" y="1024.0" type="line"/>
      <point x="249.65791915" y="0.0" type="line"/>
    </contour>
  </outline>
</glyph>
<glyph name="x" format="1">
  <advance width="870.34208085"/>
  <unicode hex="0078"/>
  <outline>
    <contour>
      <point x="576.0" y="0" type="line"/>
      <point x="576.0" y="0"/>
      <point x="832.0" y="0"/>
      <point x="832.0" y="0" type="curve"/>
      <point x="688.0" y="512" type="line"/>
      <point x="1056.0" y="1024" type="line"/>
      <point x="1056.0" y="1024"/>
      <point x="800.0" y="1024"/>
      <point x="800.0" y="1024" type="curve"/>
      <point x="696.0" y="880"/>
      <point x="432.0" y="512"/>
      <point x="432.0" y="512" type="curve"/>
    </contour>
    <contour>
      <point x="432.0" y="512" type="line"/>
    </contour>
    <contour>
      <point x="288.0" y="0" type="curve"/>
      <point x="656.0" y="512" type="line"/>
      <point x="512.0" y="1024" type="line"/>
      <point x="512.0" y="1024"/>
      <point x="256.0" y="1024"/>
      <point x="256.0" y="1024" type="curve"/>
      <point x="400.0" y="512" type="line"/>
      <point x="32.0" y="0" type="line"/>
      <point x="32.0" y="0"/>
      <point x="288.0" y="0"/>
    </contour>
    <contour>
      <point x="656.0" y="512" type="line"/>
    </contour>
  </outline>
</glyph>
<glyph name="z" format="1">
  <advance width="834.432579522"/>
  <unicode hex="007A"/>
  <outline>
    <contour>
      <point x="770.045249336" y="0" type="line"/>
      <point x="818.045249336" y="224" type="line"/>
      <point x="442.045249336" y="224" type="line"/>
      <point x="958.045249336" y="896" type="line"/>
      <point x="986.045249336" y="1024" type="line"/>
      <point x="282.045249336" y="1024" type="line"/>
      <point x="234.045249336" y="800" type="line"/>
      <point x="642.045249336" y="800" type="line"/>
      <point x="94.045249336" y="128" type="line"/>
      <point x="66.045249336" y="0" type="line"/>
    </contour>
  </outline>
</glyph>
<glyph name="copyright" format="1">
  <advance width="1392.46289606"/>
  <unicode hex="00A9"/>
  <outline>
    <contour>
      <point x="973.098190543" y="408" type="curve"/>
      <point x="1009.09819054" y="564" type="line"/>
      <point x="953.098190543" y="540"/>
      <point x="929.098190543" y="528"/>
      <point x="861.098190543" y="528" type="curve"/>
      <point x="769.098190543" y="528"/>
      <point x="729.098190543" y="572"/>
      <point x="753.098190543" y="688" type="curve" smooth="yes"/>
      <point x="785.098190543" y="828" type="line" smooth="yes"/>
      <point x="809.098190543" y="944"/>
      <point x="865.098190543" y="992"/>
      <point x="957.098190543" y="992" type="curve"/>
      <point x="1025.09819054" y="992"/>
      <point x="1049.09819054" y="976"/>
      <point x="1089.09819054" y="956" type="curve"/>
      <point x="1125.09819054" y="1116" type="line"/>
      <point x="1105.09819054" y="1128"/>
      <point x="1053.09819054" y="1148"/>
      <point x="969.098190543" y="1148" type="curve"/>
      <point x="789.098190543" y="1148"/>
      <point x="649.098190543" y="1032"/>
      <point x="609.098190543" y="852" type="curve" smooth="yes"/>
      <point x="569.098190543" y="668" type="line" smooth="yes"/>
      <point x="529.098190543" y="480"/>
      <point x="621.098190543" y="368"/>
      <point x="801.098190543" y="368" type="curve"/>
      <point x="885.098190543" y="368"/>
      <point x="945.098190543" y="392"/>
    </contour>
    <contour>
      <point x="1429.09819054" y="624" type="curve"/>
      <point x="1477.09819054" y="852" type="line"/>
      <point x="1557.09819054" y="1220"/>
      <point x="1381.09819054" y="1496"/>
      <point x="1013.09819054" y="1496" type="curve"/>
      <point x="645.098190543" y="1496"/>
      <point x="357.098190543" y="1220"/>
      <point x="277.098190543" y="852" type="curve"/>
      <point x="229.098190543" y="624" type="line"/>
      <point x="149.098190543" y="256"/>
      <point x="325.098190543" y="-16"/>
      <point x="693.098190543" y="-16" type="curve"/>
      <point x="1061.09819054" y="-16"/>
      <point x="1349.09819054" y="256"/>
    </contour>
    <contour>
      <point x="1281.09819054" y="900" type="curve"/>
      <point x="1213.09819054" y="584" type="line"/>
      <point x="1161.09819054" y="352"/>
      <point x="945.098190543" y="188"/>
      <point x="737.098190543" y="188" type="curve"/>
      <point x="529.098190543" y="188"/>
      <point x="377.098190543" y="352"/>
      <point x="429.098190543" y="584" type="curve"/>
      <point x="497.098190543" y="900" type="line"/>
      <point x="545.098190543" y="1128"/>
      <point x="761.098190543" y="1288"/>
      <point x="969.098190543" y="1288" type="curve"/>
      <point x="1177.09819054" y="1288"/>
      <point x="1329.09819054" y="1128"/>
    </contour>
  </outline>
</glyph>
<glyph name="endash" format="1">
  <advance width="1027.0135748"/>
  <unicode hex="2013"/>
  <outline>
    <contour>
      <point x="1091.24343936" y="768" type="line"/>
      <point x="259.243439363" y="768" type="line"/>
      <point x="211.243439363" y="528" type="line"/>
      <point x="1043.24343936" y="528" type="line"/>
    </contour>
  </outline>
</glyph>
<glyph name="emdash" format="1">
  <advance width="1539.0135748"/>
  <unicode hex="2014"/>
  <outline>
    <contour>
      <point x="1603.24343936" y="768" type="line"/>
      <point x="259.243439363" y="768" type="line"/>
      <point x="211.243439363" y="528" type="line"/>
      <point x="1555.24343936" y="528" type="line"/>
    </contour>
  </outline>
</glyph>
<glyph name="quoteleft" format="1">
  <advance width="451.382805252"/>
  <unicode hex="2018"/>
  <outline>
    <contour>
      <point x="368.054299203" y="1264" type="curve"/>
      <point x="300.054299203" y="960" type="line"/>
      <point x="556.054299203" y="960" type="line"/>
      <point x="624.054299203" y="1264" type="line"/>
      <point x="624.054299203" y="1264"/>
      <point x="368.054299203" y="1264"/>
    </contour>
    <contour>
      <point x="492.054299203" y="1472" type="curve"/>
      <point x="368.054299203" y="1264" type="line"/>
      <point x="528.054299203" y="1264" type="line"/>
      <point x="528.054299203" y="1264"/>
      <point x="572.054299203" y="1472"/>
      <point x="572.054299203" y="1472" type="curve"/>
      <point x="572.054299203" y="1472"/>
      <point x="492.054299203" y="1472"/>
    </contour>
  </outline>
</glyph>
<glyph name="quoteright" format="1">
  <advance width="465.216289761"/>
  <unicode hex="2019"/>
  <outline>
    <contour>
      <point x="460.883258778" y="1184" type="curve"/>
      <point x="416.883258778" y="976" type="line"/>
      <point x="416.883258778" y="976"/>
      <point x="496.883258778" y="976"/>
      <point x="496.883258778" y="976" type="curve"/>
      <point x="620.883258778" y="1184" type="line"/>
      <point x="680.883258778" y="1472" type="line"/>
      <point x="408.883258778" y="1472" type="line"/>
      <point x="348.883258778" y="1184" type="line"/>
      <point x="348.883258778" y="1184"/>
      <point x="460.883258778" y="1184"/>
    </contour>
  </outline>
</glyph>
<glyph name="quotedblleft" format="1">
  <advance width="865.216289761"/>
  <unicode hex="201C"/>
  <outline>
    <contour>
      <point x="924.671493951" y="1264" type="curve"/>
      <point x="968.671493951" y="1472" type="line"/>
      <point x="968.671493951" y="1472"/>
      <point x="888.671493951" y="1472"/>
      <point x="888.671493951" y="1472" type="curve"/>
      <point x="764.671493951" y="1264" type="line"/>
      <point x="704.671493951" y="976" type="line"/>
      <point x="976.671493951" y="976" type="line"/>
      <point x="1036.67149395" y="1264" type="line"/>
      <point x="1036.67149395" y="1264"/>
      <point x="924.671493951" y="1264"/>
    </contour>
    <contour>
      <point x="524.671493951" y="1264" type="curve"/>
      <point x="568.671493951" y="1472" type="line"/>
      <point x="568.671493951" y="1472"/>
      <point x="488.671493951" y="1472"/>
      <point x="488.671493951" y="1472" type="curve"/>
      <point x="364.671493951" y="1264" type="line"/>
      <point x="304.671493951" y="976" type="line"/>
      <point x="576.671493951" y="976" type="line"/>
      <point x="636.671493951" y="1264" type="line"/>
      <point x="636.671493951" y="1264"/>
      <point x="524.671493951" y="1264"/>
    </contour>
  </outline>
</glyph>
<glyph name="quotedblright" format="1">
  <advance width="865.216289761"/>
  <unicode hex="201D"/>
  <outline>
    <contour>
      <point x="860.883258778" y="1184" type="line"/>
      <point x="816.883258778" y="976" type="line"/>
      <point x="816.883258778" y="976"/>
      <point x="896.883258778" y="976"/>
      <point x="896.883258778" y="976" type="curve"/>
      <point x="1020.88325878" y="1184" type="line"/>
      <point x="1080.88325878" y="1472" type="line"/>
      <point x="1080.88325878" y="1472"/>
      <point x="808.883258778" y="1472"/>
      <point x="808.883258778" y="1472" type="curve"/>
      <point x="748.883258778" y="1184" type="line"/>
    </contour>
    <contour>
      <point x="460.883258778" y="1184" type="line"/>
      <point x="416.883258778" y="976" type="line"/>
      <point x="416.883258778" y="976"/>
      <point x="496.883258778" y="976"/>
      <point x="496.883258778" y="976" type="curve"/>
      <point x="620.883258778" y="1184" type="line"/>
      <point x="680.883258778" y="1472" type="line"/>
      <point x="680.883258778" y="1472"/>
      <point x="408.883258778" y="1472"/>
      <point x="408.883258778" y="1472" type="curve"/>
      <point x="348.883258778" y="1184" type="line"/>
    </contour>
  </outline>
</glyph>
<glyph name="f_f" format="1">
  <advance width="1288.77466037"/>
  <outline>
    <contour>
      <point x="426.045249336" y="1248.0" type="curve"/>
      <point x="378.045249336" y="1024.0" type="line"/>
      <point x="250.045249336" y="1024.0" type="line"/>
      <point x="202.045249336" y="800.0" type="line"/>
      <point x="330.045249336" y="800.0" type="line"/>
      <point x="66.045249336" y="-448.0" type="line"/>
      <point x="338.045249336" y="-384.0" type="line"/>
      <point x="590.045249336" y="800.0" type="line"/>
      <point x="782.045249336" y="800.0" type="line"/>
      <point x="830.045249336" y="1024.0" type="line"/>
      <point x="638.045249336" y="1024.0" type="line"/>
      <point x="678.045249336" y="1216.0" type="line"/>
      <point x="686.045249336" y="1248.0"/>
      <point x="714.045249336" y="1280.0"/>
      <point x="758.045249336" y="1280.0" type="curve" smooth="yes"/>
      <point x="814.045249336" y="1280.0"/>
      <point x="850.045249336" y="1264.0"/>
      <point x="878.045249336" y="1248.0" type="curve"/>
      <point x="922.045249336" y="1456.0" type="line"/>
      <point x="894.045249336" y="1472.0"/>
      <point x="806.045249336" y="1504.0"/>
      <point x="742.045249336" y="1504.0" type="curve"/>
      <point x="582.045249336" y="1504.0"/>
      <point x="466.045249336" y="1440.0"/>
    </contour>
    <contour>
      <point x="1070.04524934" y="1248.0" type="curve"/>
      <point x="1022.04524934" y="1024.0" type="line"/>
      <point x="734.045249336" y="1024.0" type="line"/>
      <point x="686.045249336" y="800.0" type="line"/>
      <point x="974.045249336" y="800.0" type="line"/>
      <point x="710.045249336" y="-448.0" type="line"/>
      <point x="982.045249336" y="-384.0" type="line"/>
      <point x="1234.04524934" y="800.0" type="line"/>
      <point x="1426.04524934" y="800.0" type="line"/>
      <point x="1474.04524934" y="1024.0" type="line"/>
      <point x="1282.04524934" y="1024.0" type="line"/>
      <point x="1322.04524934" y="1216.0" type="line"/>
      <point x="1330.04524934" y="1248.0"/>
      <point x="1358.04524934" y="1280.0"/>
      <point x="1402.04524934" y="1280.0" type="curve" smooth="yes"/>
      <point x="1458.04524934" y="1280.0"/>
      <point x="1494.04524934" y="1264.0"/>
      <point x="1522.04524934" y="1248.0" type="curve"/>
      <point x="1566.04524934" y="1456.0" type="line"/>
      <point x="1538.04524934" y="1472.0"/>
      <point x="1450.04524934" y="1504.0"/>
      <point x="1386.04524934" y="1504.0" type="curve"/>
      <point x="1226.04524934" y="1504.0"/>
      <point x="1110.04524934" y="1440.0"/>
    </contour>
  </outline>
</glyph>
